<?xml version="1.0" encoding="UTF-8"?>
<svg version="1.1" xmlns="http://www.w3.org/2000/svg" width="500" height="500">
<path d="M0 0 C0.66 0 1.32 0 2 0 C2.23340088 0.61963623 2.46680176 1.23927246 2.70727539 1.87768555 C4.37905344 4.62230624 5.66044324 4.96612083 8.68359375 5.95703125 C9.61107422 6.26447266 10.53855469 6.57191406 11.49414062 6.88867188 C12.46544922 7.19353516 13.43675781 7.49839844 14.4375 7.8125 C15.40494141 8.13669922 16.37238281 8.46089844 17.36914062 8.79492188 C22.64409751 10.74777963 22.64409751 10.74777963 28 10 C27.54177532 13.46941546 27.10868317 16.67395049 26 20 C16.65195297 18.3142866 7.73916076 14.63487217 -1 11 C-1 11.66 -1 12.32 -1 13 C-0.21625 13.226875 0.5675 13.45375 1.375 13.6875 C4 15 4 15 5.3125 17.625 C5.539375 18.40875 5.76625 19.1925 6 20 C7.03125 19.896875 8.0625 19.79375 9.125 19.6875 C13.00177157 20.00014287 14.9812462 20.62595152 17.83203125 23.30859375 C20.09230194 26.58182855 20.32521111 30.11160626 20 34 C18.6875 36.875 18.6875 36.875 17 39 C14.5705484 42.6441774 14.83820425 44.71241272 15 49 C12.525 49.495 12.525 49.495 10 50 C8.9375 48.125 8.9375 48.125 8 46 C8.495 45.01 8.495 45.01 9 44 C7.7625 43.7525 6.525 43.505 5.25 43.25 C1.45837424 42.2769279 -0.73575915 41.35107646 -3 38 C-4.28367931 33.04866551 -4.16578318 29.64096396 -2 25 C-0.70644173 23.62804426 0.62298702 22.28817344 2 21 C2.495 19.515 2.495 19.515 3 18 C-2.31616897 19.84960802 -3.7027506 24.62880106 -6.12109375 29.34765625 C-8 32 -8 32 -10.72265625 32.87109375 C-11.47417969 32.91363281 -12.22570312 32.95617187 -13 33 C-12.81584568 35.94091587 -12.81584568 35.94091587 -12 39 C-10.26857146 40.15922128 -10.26857146 40.15922128 -8 41 C-5.850293 42.55052216 -3.96984706 44.20922994 -2 46 C-2 46.66 -2 47.32 -2 48 C-1.34 48 -0.68 48 0 48 C0 48.66 0 49.32 0 50 C0.66 50 1.32 50 2 50 C2 50.66 2 51.32 2 52 C3.65 52 5.3 52 7 52 C6.59316505 54.35964273 6.10185661 55.85934088 4.6875 57.8125 C3 59 3 59 0.8125 58.6875 C0.214375 58.460625 -0.38375 58.23375 -1 58 C-0.938125 58.928125 -0.87625 59.85625 -0.8125 60.8125 C-1 64 -1 64 -2.25 65.75 C-5.37677993 67.98341423 -6.97051753 69.06571165 -10.9375 68.8125 C-14.13346681 67.96459044 -16.28122405 66.86021512 -19 65 C-19.763125 64.484375 -20.52625 63.96875 -21.3125 63.4375 C-21.869375 62.963125 -22.42625 62.48875 -23 62 C-23 61.34 -23 60.68 -23 60 C-23.66 60 -24.32 60 -25 60 C-25 59.34 -25 58.68 -25 58 C-25.66 58 -26.32 58 -27 58 C-27 57.34 -27 56.68 -27 56 C-29.31 55.67 -31.62 55.34 -34 55 C-32.32127275 51.03209924 -29.91722926 48.13068506 -27 45 C-26.01 45 -25.02 45 -24 45 C-23.95875 45.721875 -23.9175 46.44375 -23.875 47.1875 C-22.62409277 51.20827325 -20.2804109 52.41754887 -17 55 C-17 55.66 -17 56.32 -17 57 C-16.443125 57.2475 -15.88625 57.495 -15.3125 57.75 C-13 59 -13 59 -10.5 61.125 C-7.9875 63.4 -7.9875 63.4 -4 63 C-4.06006078 61.54052295 -4.1488689 60.08220728 -4.25 58.625 C-4.29640625 57.81289063 -4.3428125 57.00078125 -4.390625 56.1640625 C-4.77265988 53.85876108 -4.77265988 53.85876108 -6.78515625 52.9296875 C-7.51605469 52.62289062 -8.24695313 52.31609375 -9 52 C-10.42981993 50.87524369 -11.8255652 49.70606609 -13.1875 48.5 C-14.22970703 47.58734375 -14.22970703 47.58734375 -15.29296875 46.65625 C-17 45 -17 45 -18 43 C-19.65 43 -21.3 43 -23 43 C-22 41 -21 39 -20 37 C-19.34 37 -18.68 37 -18 37 C-17.34 35.35 -16.68 33.7 -16 32 C-16.598125 31.9175 -17.19625 31.835 -17.8125 31.75 C-20.73024575 30.74963003 -21.53950675 29.70191251 -23 27 C-23.63259422 22.15011096 -22.54424993 19.12343953 -20 15 C-17.375 12.1875 -17.375 12.1875 -15 10 C-14.67 9.67 -14.34 9.34 -14 9 C-8.47058824 8.76470588 -8.47058824 8.76470588 -6 10 C-6 10.66 -6 11.32 -6 12 C-5.34 12 -4.68 12 -4 12 C-3.71125 10.948125 -3.4225 9.89625 -3.125 8.8125 C-2.22774807 5.77181289 -1.23576581 2.91287656 0 0 Z M-15.1875 13.5625 C-18.14459255 17.53927963 -20.15771389 20.29668997 -19.6875 25.375 C-19.460625 26.24125 -19.23375 27.1075 -19 28 C-17.16299211 28.77242269 -17.16299211 28.77242269 -15 29 C-12.23492921 26.80118041 -10.8635602 24.13006743 -9.3125 21 C-8.87550781 20.13375 -8.43851562 19.2675 -7.98828125 18.375 C-6.80790798 15.96710776 -6.80790798 15.96710776 -7 13 C-11.31822112 11.72979293 -11.31822112 11.72979293 -15.1875 13.5625 Z M2 25 C-0.22534695 27.73709522 -0.22534695 27.73709522 0 30.4375 C1.45185001 34.15786566 3.51964708 35.16132298 7 37 C10.08961458 37.97474816 10.08961458 37.97474816 13 38 C13.99 37.34 14.98 36.68 16 36 C16.5992612 33.55640146 16.5992612 33.55640146 16 31 C14.23215737 29.09085888 14.23215737 29.09085888 11.8125 27.6875 C10.64654297 26.91986328 10.64654297 26.91986328 9.45703125 26.13671875 C6.6892906 24.85625368 5.01115616 24.53947023 2 25 Z " fill="#E0E0E0" transform="translate(355,280)"/>
<path d="M0 0 C1.9375 0.375 1.9375 0.375 4 1 C5.36839363 3.73678725 5.21634818 6.04264424 5.31640625 9.1015625 C5.35830078 10.31328125 5.40019531 11.525 5.44335938 12.7734375 C5.48267578 14.04445313 5.52199219 15.31546875 5.5625 16.625 C5.60568359 17.90375 5.64886719 19.1825 5.69335938 20.5 C5.79969886 23.66655348 5.90172833 26.83318753 6 30 C10.44804323 21.72200391 14.86832923 13.44211575 19 5 C20.65 5 22.3 5 24 5 C24.88565586 7.65696758 25.1450262 9.28190083 25.20532227 12.01245117 C25.2352401 13.2133564 25.2352401 13.2133564 25.26576233 14.43852234 C25.28247482 15.29798965 25.29918732 16.15745697 25.31640625 17.04296875 C25.33718735 17.9265657 25.35796844 18.81016266 25.37937927 19.72053528 C25.44475754 22.54277785 25.50370528 25.36511335 25.5625 28.1875 C25.60569637 30.10092106 25.64931102 32.01433273 25.69335938 33.92773438 C25.80042695 38.61839437 25.90172752 43.30914783 26 48 C26.99 48 27.98 48 29 48 C29 48.66 29 49.32 29 50 C27.24929483 49.88529863 25.49942464 49.75780972 23.75 49.625 C22.77546875 49.55539062 21.8009375 49.48578125 20.796875 49.4140625 C18.10366811 49.01534751 16.33036721 48.36492937 14 47 C14.495 46.01 14.495 46.01 15 45 C15.99 45 16.98 45 18 45 C17.84152588 44.44731445 17.68305176 43.89462891 17.51977539 43.32519531 C16.95067733 40.77935695 16.7896572 38.40300555 16.68359375 35.796875 C16.64169922 34.8171875 16.59980469 33.8375 16.55664062 32.828125 C16.51732422 31.81234375 16.47800781 30.7965625 16.4375 29.75 C16.39431641 28.71875 16.35113281 27.6875 16.30664062 26.625 C16.20074318 24.0834613 16.09866557 21.54182804 16 19 C15.34 20.65 14.68 22.3 14 24 C13.34 24 12.68 24 12 24 C11.80966187 24.86286621 11.80966187 24.86286621 11.61547852 25.74316406 C10.9940536 28.02180427 10.16867949 29.97990965 9.15234375 32.109375 C8.79462891 32.86347656 8.43691406 33.61757813 8.06835938 34.39453125 C7.69517578 35.17183594 7.32199219 35.94914062 6.9375 36.75 C6.56044922 37.54277344 6.18339844 38.33554687 5.79492188 39.15234375 C4.86654161 41.10311746 3.93370456 43.05176906 3 45 C1.35 44.67 -0.3 44.34 -2 44 C-3.19148936 24.65957447 -3.19148936 24.65957447 -3 15 C-3.66 15 -4.32 15 -5 15 C-5.38285156 16.25683594 -5.38285156 16.25683594 -5.7734375 17.5390625 C-7.11768918 21.33207838 -8.79014193 24.80224791 -10.625 28.375 C-10.94984375 29.01566406 -11.2746875 29.65632813 -11.609375 30.31640625 C-12.40257407 31.87947501 -13.20077031 33.44000622 -14 35 C-14.66 35 -15.32 35 -16 35 C-16 35.99 -16 36.98 -16 38 C-15.01 38 -14.02 38 -13 38 C-13 38.99 -13 39.98 -13 41 C-16.46941546 40.54177532 -19.67395049 40.10868317 -23 39 C-22.67 38.01 -22.34 37.02 -22 36 C-21.01 36.33 -20.02 36.66 -19 37 C-18.73445312 36.12085938 -18.46890625 35.24171875 -18.1953125 34.3359375 C-17.03924408 31.10952434 -15.66789884 28.53533347 -13.875 25.625 C-10.50720449 19.99788675 -7.54200839 14.2360081 -4.66552734 8.34423828 C-3.23847029 5.43027286 -1.803155 2.70473251 0 0 Z " fill="#E7E7E7" transform="translate(214,353)"/>
<path d="M0 0 C6.21132141 4.18589052 10.32280338 11.98580254 12.875 18.9375 C12.38 20.4225 12.38 20.4225 11.875 21.9375 C11.33746094 21.54981445 10.79992187 21.16212891 10.24609375 20.76269531 C7.80141901 19.63025359 7.80141901 19.63025359 5.09765625 20.96386719 C4.05480469 21.54813477 3.01195312 22.13240234 1.9375 22.734375 C0.79539063 23.3634375 -0.34671875 23.9925 -1.5234375 24.640625 C-2.72420704 25.32247887 -3.92472551 26.00477506 -5.125 26.6875 C-6.32469495 27.35565174 -7.52520839 28.02233609 -8.7265625 28.6875 C-10.93775585 29.91538615 -13.14519399 31.15007553 -15.34765625 32.39355469 C-17.58368898 33.63658132 -19.82495842 34.81919441 -22.125 35.9375 C-22.125 37.2575 -22.125 38.5775 -22.125 39.9375 C-23.859375 39.87890625 -23.859375 39.87890625 -26.125 38.9375 C-27.75063895 36.58506992 -29.06846157 34.39371574 -30.375 31.875 C-30.73851563 31.23111328 -31.10203125 30.58722656 -31.4765625 29.92382812 C-34.07094055 25.0325477 -34.57287577 21.45933676 -34.125 15.9375 C-33.125 13.4375 -33.125 13.4375 -32.125 11.9375 C-31.465 11.9375 -30.805 11.9375 -30.125 11.9375 C-30.125 11.2775 -30.125 10.6175 -30.125 9.9375 C-26.03435972 6.9239994 -21.70280493 4.52248642 -17.1875 2.1875 C-16.02347656 1.57390625 -14.85945313 0.9603125 -13.66015625 0.328125 C-8.75063133 -1.60313563 -4.98010891 -1.69323703 0 0 Z M-9.125 6.9375 C-9.125 7.5975 -9.125 8.2575 -9.125 8.9375 C-9.66253906 9.04578125 -10.20007813 9.1540625 -10.75390625 9.265625 C-17.61650107 11.2102153 -26.10447696 14.83226131 -30.125 20.9375 C-30.06771002 24.68110341 -30.06771002 24.68110341 -29.125 27.9375 C-25.0098408 28.22976591 -22.67683179 27.47132157 -19.10546875 25.453125 C-18.16509766 24.92976563 -17.22472656 24.40640625 -16.25585938 23.8671875 C-15.28455078 23.31289063 -14.31324219 22.75859375 -13.3125 22.1875 C-11.39002431 21.1081248 -9.46685841 20.02997791 -7.54296875 18.953125 C-6.62692871 18.43814453 -5.71088867 17.92316406 -4.76708984 17.39257812 C-1.26853971 15.46582163 2.28529868 13.6877449 5.875 11.9375 C3.49871453 7.58083669 3.49871453 7.58083669 -0.5 4.9375 C-3.70723558 4.9375 -6.15763818 5.76435695 -9.125 6.9375 Z " fill="#E3E3E3" transform="translate(147.125,294.0625)"/>
<path d="M0 0 C0.99 0 1.98 0 3 0 C6.35656356 7.67214528 8.229268 15.62561174 7 24 C5.2610593 27.83498529 2.55487941 29.70036512 -1.125 31.6875 C-2.40664155 32.15355147 -3.69999901 32.58792421 -5 33 C-5.82757813 33.2784375 -6.65515625 33.556875 -7.5078125 33.84375 C-15.18354873 36.20551499 -23.05381668 38.08071484 -30.4375 34.1875 C-36.14480515 28.38150946 -37.48745017 18.68879495 -39 11 C-37.68 11 -36.36 11 -35 11 C-35 11.66 -35 12.32 -35 13 C-34.43716309 12.83918945 -33.87432617 12.67837891 -33.29443359 12.51269531 C-32.10841553 12.17383301 -32.10841553 12.17383301 -30.8984375 11.828125 C-30.02147217 11.57756348 -29.14450684 11.32700195 -28.2409668 11.06884766 C-18.8273112 8.37923177 -9.4136556 5.68961589 0 3 C0 2.01 0 1.02 0 0 Z M-7.5 13.8125 C-12.14829839 15.18277963 -16.79171761 16.47735617 -21.5 17.625 C-25.40524336 18.58042719 -29.21389248 19.63279451 -33 21 C-32.40138258 23.35171131 -31.73075648 25.6859378 -31 28 C-25.14239713 30.92880143 -17.37598688 28.22029454 -11.375 26.8125 C-10.446875 26.61591797 -9.51875 26.41933594 -8.5625 26.21679688 C-3.097521 24.94450592 0.57845277 23.76546706 4 19 C3.94271002 15.25639659 3.94271002 15.25639659 3 12 C-0.99783997 12 -3.6965089 12.66888274 -7.5 13.8125 Z " fill="#E6E6E6" transform="translate(391,196)"/>
<path d="M0 0 C0.86625 -0.00515625 1.7325 -0.0103125 2.625 -0.015625 C5 0.25 5 0.25 8 2.25 C8 2.91 8 3.57 8 4.25 C8.556875 4.476875 9.11375 4.70375 9.6875 4.9375 C13.5096681 7.10683865 16.21713876 9.86220053 18.375 13.6875 C19.18525827 17.00955891 19.02233226 18.97853677 18 22.25 C15.80970208 24.77726683 13.99974261 26.75012869 11 28.25 C12.09758507 29.09198307 13.20335317 29.92330671 14.3125 30.75 C15.23482422 31.44609375 15.23482422 31.44609375 16.17578125 32.15625 C18.07433005 33.50711283 18.07433005 33.50711283 21 33.25 C20.40716379 36.64192363 19.23256811 38.4607757 16.9375 41 C16.38964844 41.61359375 15.84179688 42.2271875 15.27734375 42.859375 C14.64505859 43.54773438 14.64505859 43.54773438 14 44.25 C12.515 43.755 12.515 43.755 11 43.25 C10.938125 42.5075 10.87625 41.765 10.8125 41 C9.75812 37.43132923 7.92604058 36.42577376 5 34.25 C5 33.59 5 32.93 5 32.25 C4.443125 32.02183594 3.88625 31.79367188 3.3125 31.55859375 C0.35439238 29.88466461 -1.64427001 27.75800628 -4 25.3125 C-8.16827095 20.88292696 -8.16827095 20.88292696 -13 17.25 C-14.32 17.25 -15.64 17.25 -17 17.25 C-16.62952882 14.50851328 -16.31412056 12.66406801 -14.625 10.4375 C-13 9.25 -13 9.25 -10 9.25 C-9.731875 8.13625 -9.46375 7.0225 -9.1875 5.875 C-7.4532419 0.58094896 -5.20195067 -0.03096399 0 0 Z M-4 4.25 C-4.99 4.91 -5.98 5.57 -7 6.25 C-6.67 8.56 -6.34 10.87 -6 13.25 C-5.34 13.25 -4.68 13.25 -4 13.25 C-4 13.91 -4 14.57 -4 15.25 C-3.34 15.25 -2.68 15.25 -2 15.25 C-2 15.91 -2 16.57 -2 17.25 C-0.16525561 19.07210061 -0.16525561 19.07210061 2.1875 20.875 C3.35345703 21.82246094 3.35345703 21.82246094 4.54296875 22.7890625 C7.30495703 24.4313258 8.84470789 24.55263903 12 24.25 C13.19838209 21.92145537 13.19838209 21.92145537 14 19.25 C13.34 18.26 12.68 17.27 12 16.25 C11.34 16.25 10.68 16.25 10 16.25 C10 15.59 10 14.93 10 14.25 C6.94441577 11.22482091 6.94441577 11.22482091 3 10.25 C2.773125 9.63125 2.54625 9.0125 2.3125 8.375 C0.58588104 5.57952169 -0.84532227 5.01943359 -4 4.25 Z " fill="#DBDBDB" transform="translate(155,148.75)"/>
<path d="M0 0 C2.875 1.625 2.875 1.625 5 4 C5.8125 7.25 5.8125 7.25 6 10 C7.65 10 9.3 10 11 10 C11.70703125 11.734375 11.70703125 11.734375 12 14 C10.63671875 16.140625 10.63671875 16.140625 8.6875 18.25 C8.05199219 18.95640625 7.41648438 19.6628125 6.76171875 20.390625 C5 22 5 22 3 22 C3 22.66 3 23.32 3 24 C2.34 24 1.68 24 1 24 C0.6596875 24.804375 0.6596875 24.804375 0.3125 25.625 C-1.45570089 28.82460161 -3.53670203 31.29037223 -6 34 C-6.66 34 -7.32 34 -8 34 C-8.268125 34.5775 -8.53625 35.155 -8.8125 35.75 C-10 38 -10 38 -11.625 40.0625 C-13.2893735 42.0117832 -13.2893735 42.0117832 -13 45 C-16.7726764 44.46104623 -18.68212991 43.00464642 -21 40 C-20.75 37.75 -20.75 37.75 -20 36 C-19.34 36 -18.68 36 -18 36 C-17.34 34.35 -16.68 32.7 -16 31 C-15.34 31 -14.68 31 -14 31 C-14 30.34 -14 29.68 -14 29 C-14.94875 28.38125 -15.8975 27.7625 -16.875 27.125 C-21.17728532 24.19944598 -21.17728532 24.19944598 -22 21 C-22.25720529 14.56986778 -19.20105939 11.02029985 -15.1171875 6.24609375 C-10.54848801 1.39922621 -6.99502619 -1.01745835 0 0 Z M-4.66796875 6.19921875 C-6.2396825 7.74106621 -7.69356858 9.22666525 -9 11 C-9 11.66 -9 12.32 -9 13 C-9.66 13 -10.32 13 -11 13 C-12.58455866 14.78723941 -12.58455866 14.78723941 -14.125 17 C-14.93324219 18.11375 -14.93324219 18.11375 -15.7578125 19.25 C-16.16773438 19.8275 -16.57765625 20.405 -17 21 C-16.34 22.32 -15.68 23.64 -15 25 C-10.46435491 24.8185742 -7.78143641 24.219977 -4.5625 21.0625 C-1.78609246 18.40988077 -1.78609246 18.40988077 -2 16 C-1.34 16 -0.68 16 0 16 C2.17364926 13.18230651 3.08677021 11.7809319 2.6875 8.1875 C2.3471875 7.1046875 2.3471875 7.1046875 2 6 C-0.68693692 4.89361421 -2.22648931 4.44386936 -4.66796875 6.19921875 Z " fill="#E0E0E0" transform="translate(171,325)"/>
<path d="M0 0 C3.9115468 1.47958509 5.2274524 3.53957471 7.25 7.125 C8.03117187 8.49011719 8.03117187 8.49011719 8.828125 9.8828125 C9.40820312 10.93082031 9.40820312 10.93082031 10 12 C8.329375 12.309375 8.329375 12.309375 6.625 12.625 C5.42875 13.07875 4.2325 13.5325 3 14 C1.59155349 16.89190405 1.59155349 16.89190405 1 20 C0.34 20.99 -0.32 21.98 -1 23 C5.435 22.505 5.435 22.505 12 22 C11.505 20.02 11.505 20.02 11 18 C12.75 18.125 12.75 18.125 15 19 C19 24.22222222 19 24.22222222 19 27 C17.68 26.67 16.36 26.34 15 26 C15 25.34 15 24.68 15 24 C12.98177083 24.48828125 10.96354167 24.9765625 8.9453125 25.46484375 C6 26 6 26 3.68115234 25.93579102 C0.86408982 25.93765169 -1.31811254 26.11373951 -4 27 C-6.93325252 29.96849904 -8.71959382 33.37486034 -10.625 37.0625 C-11.15222656 38.01189453 -11.67945313 38.96128906 -12.22265625 39.93945312 C-13.51497275 42.27737116 -14.77131175 44.62820536 -16 47 C-15.34 47 -14.68 47 -14 47 C-14.33 47.99 -14.66 48.98 -15 50 C-18.34551419 48.61318429 -19.86764741 47.20415702 -21.75 44.125 C-22.17796875 43.44695312 -22.6059375 42.76890625 -23.046875 42.0703125 C-24 40 -24 40 -24 36 C-22.68 36 -21.36 36 -20 36 C-18.35 33.03 -16.7 30.06 -15 27 C-19.16138263 26.91840426 -22.9472484 27.01751476 -27 28 C-27 28.99 -27 29.98 -27 31 C-27.99 31 -28.98 31 -30 31 C-34 24.25 -34 24.25 -34 22 C-33.01 22 -32.02 22 -31 22 C-31 22.66 -31 23.32 -31 24 C-30.39414062 23.9278125 -29.78828125 23.855625 -29.1640625 23.78125 C-23.08165405 23.1075063 -17.11697862 22.88286637 -11 23 C-11 22.34 -11 21.68 -11 21 C-10.34 21 -9.68 21 -9 21 C-8.86078125 20.17628906 -8.86078125 20.17628906 -8.71875 19.3359375 C-7.50239054 15.38276926 -4.91988006 12.23589107 -2.59375 8.8515625 C-0.90235705 5.8252957 -0.36371052 3.42494077 0 0 Z " fill="#DDDDDD" transform="translate(367,152)"/>
<path d="M0 0 C5.45479185 0.56820748 9.91059256 1.94637945 15 4 C14.67 4.99 14.34 5.98 14 7 C12.68 6.67 11.36 6.34 10 6 C9.731875 7.27875 9.46375 8.5575 9.1875 9.875 C7.56666207 17.14594196 5.38225179 24.16185194 2.6953125 31.10546875 C1.62320596 34.02665792 0.81319498 36.99743391 0 40 C0.99 40.66 1.98 41.32 3 42 C3.54269531 41.566875 4.08539063 41.13375 4.64453125 40.6875 C5.35996094 40.130625 6.07539063 39.57375 6.8125 39 C7.52019531 38.443125 8.22789062 37.88625 8.95703125 37.3125 C11 36 11 36 14 36 C14 35.34 14 34.68 14 34 C15.86680868 32.61750489 17.79549792 31.31796366 19.75 30.0625 C24.09264947 27.27444893 24.09264947 27.27444893 28.265625 24.24609375 C30 23 30 23 32 23 C32 22.34 32 21.68 32 21 C33.86328125 19.4921875 33.86328125 19.4921875 36.3125 17.875 C37.11300781 17.33617188 37.91351563 16.79734375 38.73828125 16.2421875 C41 15 41 15 44 15 C43.875 16.75 43.875 16.75 43 19 C37.77777778 23 37.77777778 23 35 23 C35 23.66 35 24.32 35 25 C33.19140625 26.3046875 33.19140625 26.3046875 30.5625 27.875 C24.39123151 31.66960504 18.52622316 35.83277536 12.66430664 40.08740234 C11.95910889 40.59352051 11.25391113 41.09963867 10.52734375 41.62109375 C9.89562256 42.0792749 9.26390137 42.53745605 8.61303711 43.00952148 C7 44 7 44 5 44 C5 44.66 5 45.32 5 46 C2.525 46.495 2.525 46.495 0 47 C0 46.01 0 45.02 0 44 C-1.051875 43.814375 -1.051875 43.814375 -2.125 43.625 C-5.21404477 42.95346853 -8.07132669 42.19809363 -11 41 C-11.495 39.515 -11.495 39.515 -12 38 C-10.515 37.505 -10.515 37.505 -9 37 C-7.847496 34.21916529 -7.847496 34.21916529 -7 30.875 C-4.86459087 23.41324717 -4.86459087 23.41324717 -3.4375 20.3125 C-0.42772877 13.3769402 1.79403182 7.50231489 0 0 Z " fill="#E3E3E3" transform="translate(290,102)"/>
<path d="M0 0 C4.28806873 0.47645208 6.26647487 1.65902484 9 5 C9 5.66 9 6.32 9 7 C10.32 7.66 11.64 8.32 13 9 C12.67 9.66 12.34 10.32 12 11 C10.35 11 8.7 11 7 11 C6.67 11.66 6.34 12.32 6 13 C5.34 13 4.68 13 4 13 C3.773125 13.53625 3.54625 14.0725 3.3125 14.625 C1.54429911 17.82460161 -0.53670203 20.29037223 -3 23 C-3.66 23 -4.32 23 -5 23 C-5.433125 23.8971875 -5.433125 23.8971875 -5.875 24.8125 C-7 27 -7 27 -9 30 C-9.66 30 -10.32 30 -11 30 C-11 30.66 -11 31.32 -11 32 C-11.66 32 -12.32 32 -13 32 C-13.39587241 37.00879575 -13.39587241 37.00879575 -11.4375 41.5 C-8.98892184 43.29164229 -8.98892184 43.29164229 -5.5625 43.0625 C-1.44513907 41.83451516 0.17099875 40.15231568 3 37 C3.66 37 4.32 37 5 37 C5 36.34 5 35.68 5 35 C5.66 35 6.32 35 7 35 C7.28875 34.401875 7.5775 33.80375 7.875 33.1875 C9 31 9 31 11 28 C11.66 28 12.32 28 13 28 C13.2475 27.4225 13.495 26.845 13.75 26.25 C15 24 15 24 17.1875 22.0625 C17.785625 21.381875 18.38375 20.70125 19 20 C18.85974801 17.29294488 18.85974801 17.29294488 18 15 C20 16 22 17 24 18 C24 18.66 24 19.32 24 20 C24.66 20 25.32 20 26 20 C26 20.99 26 21.98 26 23 C25.2575 22.896875 24.515 22.79375 23.75 22.6875 C20.75364411 22.71536191 20.75364411 22.71536191 18.8125 25.5 C18.214375 26.325 17.61625 27.15 17 28 C16.34 28 15.68 28 15 28 C15 28.66 15 29.32 15 30 C14.34 30 13.68 30 13 30 C12.731875 30.5775 12.46375 31.155 12.1875 31.75 C10.97070811 34.05550043 9.69666121 36.02056192 8 38 C7.34 38 6.68 38 6 38 C5.79375 38.556875 5.5875 39.11375 5.375 39.6875 C3.47559908 42.881947 1.2425446 45.2151783 -2 47 C-6.28985451 47.8167223 -10.30286545 47.46475637 -14 45 C-14 44.34 -14 43.68 -14 43 C-14.66 43 -15.32 43 -16 43 C-19.35582504 39.12789418 -19.51155985 35.3347907 -19.3515625 30.42578125 C-18.8285806 26.81720615 -17.32432381 24.76406074 -15 22 C-14.195625 20.989375 -13.39125 19.97875 -12.5625 18.9375 C-10.14358838 16.16460132 -7.60069128 13.60069128 -5 11 C-4.09565314 9.90279531 -3.19978004 8.79855154 -2.3125 7.6875 C-1.549375 6.800625 -0.78625 5.91375 0 5 C0.66 5 1.32 5 2 5 C1.34 3.35 0.68 1.7 0 0 Z " fill="#E0E0E0" transform="translate(338,125)"/>
<path d="M0 0 C7.425 0.99 7.425 0.99 15 2 C15 2.66 15 3.32 15 4 C13.68 4 12.36 4 11 4 C10.93941406 5.31355469 10.87882812 6.62710938 10.81640625 7.98046875 C10.73196744 9.71615541 10.64732112 11.45183198 10.5625 13.1875 C10.50352539 14.48397461 10.50352539 14.48397461 10.44335938 15.80664062 C10.23559613 19.97788724 9.89868303 23.91244172 9 28 C8.33104148 34.62892391 8.33104148 34.62892391 10.6875 40.625 C13.51072846 42.30367638 14.77994508 42.72451236 18 42 C22.21958922 37.54598915 23.15402886 34.45971145 23.75390625 28.4609375 C23.88603516 27.15898438 24.01816406 25.85703125 24.15429688 24.515625 C24.29044908 23.135425 24.42651568 21.75521655 24.5625 20.375 C24.70211459 18.98694297 24.84208417 17.5989216 24.98242188 16.2109375 C25.32511632 12.80762713 25.66415045 9.40399154 26 6 C25.01 6 24.02 6 23 6 C23 5.01 23 4.02 23 3 C24.258125 2.979375 25.51625 2.95875 26.8125 2.9375 C27.52019531 2.92589844 28.22789062 2.91429688 28.95703125 2.90234375 C31 3 31 3 34 4 C34 4.66 34 5.32 34 6 C32.35 6 30.7 6 29 6 C28.95101563 6.969375 28.90203125 7.93875 28.8515625 8.9375 C28.46054985 16.17989281 27.9614546 23.4127637 27.1875 30.625 C27.05730469 31.89601563 26.92710937 33.16703125 26.79296875 34.4765625 C25.73666981 39.17006812 23.89244079 42.75639605 19.8125 45.4375 C14.87381915 46.42523617 10.30264652 46.39100394 5.8984375 43.73046875 C2.55747378 41.01507642 0.81950771 39.28179512 0 35 C-0.0534668 32.90039062 -0.0534668 32.90039062 0.05078125 30.65625 C0.08888916 29.82706055 0.12699707 28.99787109 0.16625977 28.14355469 C0.21451904 27.27118164 0.26277832 26.39880859 0.3125 25.5 C0.35882568 24.60958008 0.40515137 23.71916016 0.45288086 22.80175781 C0.84297289 16.09047089 1.62099415 9.58709591 3 3 C2.01 3 1.02 3 0 3 C0 2.01 0 1.02 0 0 Z " fill="#E4E4E4" transform="translate(250,95)"/>
<path d="M0 0 C1.65 0 3.3 0 5 0 C4.01 0.495 4.01 0.495 3 1 C3.18415432 3.94091587 3.18415432 3.94091587 4 7 C5.73142854 8.15922128 5.73142854 8.15922128 8 9 C10.149707 10.55052216 12.03015294 12.20922994 14 14 C14 14.66 14 15.32 14 16 C14.66 16 15.32 16 16 16 C16 16.66 16 17.32 16 18 C16.66 18 17.32 18 18 18 C18 18.66 18 19.32 18 20 C19.65 20 21.3 20 23 20 C22.59316505 22.35964273 22.10185661 23.85934088 20.6875 25.8125 C19 27 19 27 16.8125 26.6875 C16.214375 26.460625 15.61625 26.23375 15 26 C15.061875 26.928125 15.12375 27.85625 15.1875 28.8125 C15 32 15 32 13.75 33.75 C10.62322007 35.98341423 9.02948247 37.06571165 5.0625 36.8125 C1.86653319 35.96459044 -0.28122405 34.86021512 -3 33 C-3.763125 32.484375 -4.52625 31.96875 -5.3125 31.4375 C-5.869375 30.963125 -6.42625 30.48875 -7 30 C-7 29.34 -7 28.68 -7 28 C-7.66 28 -8.32 28 -9 28 C-9 27.34 -9 26.68 -9 26 C-9.66 26 -10.32 26 -11 26 C-11 25.34 -11 24.68 -11 24 C-13.31 23.67 -15.62 23.34 -18 23 C-16.32127275 19.03209924 -13.91722926 16.13068506 -11 13 C-10.01 13 -9.02 13 -8 13 C-7.938125 14.0828125 -7.938125 14.0828125 -7.875 15.1875 C-6.62409277 19.20827325 -4.2804109 20.41754887 -1 23 C-1 23.66 -1 24.32 -1 25 C-0.443125 25.2475 0.11375 25.495 0.6875 25.75 C3 27 3 27 5.5 29.125 C8.0125 31.4 8.0125 31.4 12 31 C11.93993922 29.54052295 11.8511311 28.08220728 11.75 26.625 C11.70359375 25.81289063 11.6571875 25.00078125 11.609375 24.1640625 C11.22734012 21.85876108 11.22734012 21.85876108 9.21484375 20.9296875 C8.11849609 20.46949219 8.11849609 20.46949219 7 20 C5.57018007 18.87524369 4.1744348 17.70606609 2.8125 16.5 C2.11769531 15.8915625 1.42289062 15.283125 0.70703125 14.65625 C-1 13 -1 13 -2 11 C-3.65 11 -5.3 11 -7 11 C-6 9 -5 7 -4 5 C-3.34 5 -2.68 5 -2 5 C-1.34 3.35 -0.68 1.7 0 0 Z " fill="#E1E1E1" transform="translate(339,312)"/>
<path d="M0 0 C4.79426732 2.19304869 9.561987 4.93030389 13 9 C14.77913855 13.85219604 15.3635534 15.83280225 13.8125 20.8125 C11.51087561 24.86018427 10.41401229 26.52866257 6 28 C-0.90678339 28.86334792 -5.91902568 26.07897434 -12 23 C-12 22.34 -12 21.68 -12 21 C-12.99 20.67 -13.98 20.34 -15 20 C-17.25577029 16.27797901 -17.20610948 13.08914314 -16.546875 8.9296875 C-14.26475431 0.87706162 -7.45072389 -1.33496891 0 0 Z M-11.5 6.3125 C-11.995 6.869375 -12.49 7.42625 -13 8 C-12.68527003 11.09484471 -12.46877307 12.5796539 -10.109375 14.6953125 C-9.33078125 15.16710937 -8.5521875 15.63890625 -7.75 16.125 C-6.52796875 16.87716797 -6.52796875 16.87716797 -5.28125 17.64453125 C-4.5284375 18.09183594 -3.775625 18.53914063 -3 19 C-2.0925 19.598125 -1.185 20.19625 -0.25 20.8125 C2.25340314 22.13374055 4.17453206 22.78265631 7 23 C9.26857146 22.15922128 9.26857146 22.15922128 11 21 C11 19.35 11 17.7 11 16 C10.34 16 9.68 16 9 16 C9 15.34 9 14.68 9 14 C-0.71378585 6.78055659 -0.71378585 6.78055659 -11.5 6.3125 Z " fill="#E0E0E0" transform="translate(142,173)"/>
<path d="M0 0 C1.65 4.95 3.3 9.9 5 15 C7.31 14.01 9.62 13.02 12 12 C12.93138483 9.4542148 13 7.67137312 13 5 C12.34 5 11.68 5 11 5 C11 4.34 11 3.68 11 3 C8.36 3 5.72 3 3 3 C3 2.01 3 1.02 3 0 C10.25867508 -0.61514196 10.25867508 -0.61514196 13.9375 2.4375 C14.9584375 3.7059375 14.9584375 3.7059375 16 5 C16.33 5.33 16.66 5.66 17 6 C17.64706207 10.9916217 17.88316251 14.77915771 14.875 18.9375 C8.386651 23.59218515 2.07913618 26.14972323 -6 25 C-9.75212276 22.98497111 -11.63644095 21.54533858 -14 18 C-14.78613611 12.65427448 -15.00564773 8.3687983 -11.75 3.9375 C-7.18315019 0.71994673 -5.82082855 0 0 0 Z M-10 10 C-10.76716851 12.85078091 -10.76716851 12.85078091 -11 16 C-9.89661743 17.85353452 -9.89661743 17.85353452 -8 19 C-4.84024823 18.79808149 -2.07243514 17.84603286 1 17 C0.34 14.03 -0.32 11.06 -1 8 C-4.38023517 8 -6.83468937 8.87455622 -10 10 Z " fill="#D7D7D7" transform="translate(127,268)"/>
<path d="M0 0 C5.71044076 3.36384263 9.91207261 8.73621784 12 15 C12.3711875 20.01103128 12.11788946 22.99128499 9 27 C5.71721948 30.28278052 2.58372467 30.84194053 -2 31 C-6.7187525 29.3012491 -9.63284522 26.66425668 -13 23 C-12.34 21.68 -11.68 20.36 -11 19 C-10.34 19 -9.68 19 -9 19 C-9 18.34 -9 17.68 -9 17 C-7.25 15.7109375 -7.25 15.7109375 -5 14.375 C-3.88625 13.70597656 -3.88625 13.70597656 -2.75 13.0234375 C-1.88375 12.51683594 -1.88375 12.51683594 -1 12 C-1.57584432 9.61435923 -2.22227595 7.33317216 -3 5 C-8.01535052 5.32960216 -8.01535052 5.32960216 -12 8 C-12.24253813 10.21072977 -12.24253813 10.21072977 -12.125 12.625 C-12.10695313 13.44226563 -12.08890625 14.25953125 -12.0703125 15.1015625 C-12.04710937 15.72804688 -12.02390625 16.35453125 -12 17 C-12.99 17 -13.98 17 -15 17 C-16.42913907 9.09668874 -16.42913907 9.09668874 -14.875 5.125 C-10.77813518 0.48188653 -6.19001574 -1.44747516 0 0 Z M1 14 C1 14.66 1 15.32 1 16 C-0.2065625 16.433125 -0.2065625 16.433125 -1.4375 16.875 C-4.1326468 17.73262568 -4.1326468 17.73262568 -5 20 C-3.49540371 23.13384514 -3.49540371 23.13384514 -1 26 C2.66857722 26.50125283 2.66857722 26.50125283 6 26 C6.94721072 23.39517051 7.30222393 21.69325299 6.17578125 19.109375 C5.17063275 17.37417127 4.0893855 15.68359577 3 14 C2.34 14 1.68 14 1 14 Z " fill="#E1E1E1" transform="translate(322,337)"/>
<path d="M0 0 C0 0.66 0 1.32 0 2 C0.61875 2.2475 1.2375 2.495 1.875 2.75 C4.46275992 4.27221172 5.05592658 5.16777975 6 8 C6.35989587 12.22877647 5.80306232 15.16849256 4 19 C3.34 19 2.68 19 2 19 C1.938125 19.53625 1.87625 20.0725 1.8125 20.625 C0.61638046 24.12134942 -1.0889399 26.75648796 -4 29 C-8.63688845 30.55416887 -12.0434053 30.38599435 -16.5625 28.5625 C-17.366875 28.046875 -18.17125 27.53125 -19 27 C-19 26.34 -19 25.68 -19 25 C-19.66 25 -20.32 25 -21 25 C-23.24359229 20.64479143 -23.08039825 17.7371308 -22 13 C-20.4375 9.5625 -20.4375 9.5625 -19 7 C-14.4135952 8.23049885 -11.2717264 10.06662682 -7.61328125 12.9765625 C-5.89621144 14.26784214 -5.89621144 14.26784214 -3 14 C-1.16308743 10.21812119 -0.84162374 8.05431692 -2 4 C-6.85076152 2.79668593 -6.85076152 2.79668593 -11.3125 4.4375 C-11.869375 4.953125 -12.42625 5.46875 -13 6 C-13.66 6 -14.32 6 -15 6 C-14.7041325 3.13994749 -14.15920836 2.14428257 -12 0.1875 C-7.80368655 -1.47354074 -4.36253252 -0.78886754 0 0 Z M-14 14 C-16.45490998 18.13598196 -16.45490998 18.13598196 -16.75 22.8125 C-16.19608676 24.95043086 -16.19608676 24.95043086 -15 26 C-13.33382885 26.04063832 -11.66611905 26.042721 -10 26 C-10 25.34 -10 24.68 -10 24 C-9.34 24 -8.68 24 -8 24 C-7.01 22.02 -6.02 20.04 -5 18 C-9.09947304 14.86293483 -9.09947304 14.86293483 -14 14 Z " fill="#DDDDDD" transform="translate(196,343)"/>
<path d="M0 0 C3.82816757 2.02242815 6.89070191 4.1536329 9 8 C7.43414485 12.69756545 3.39272134 14.30595876 -0.62890625 16.96484375 C-1.41136719 17.63644531 -2.19382813 18.30804688 -3 19 C-3 20.32 -3 21.64 -3 23 C-2.34 23 -1.68 23 -1 23 C-1 23.66 -1 24.32 -1 25 C2.47931145 25.31630104 4.42283191 25.35518036 7.4375 23.5 C9.78829768 19.73872372 8.85594505 17.27972524 8 13 C8.99 13 9.98 13 11 13 C12.16983345 15.3396669 12.1661241 16.83391527 12.1875 19.4375 C12.20167969 20.21996094 12.21585938 21.00242188 12.23046875 21.80859375 C12 24 12 24 10 27 C9.34 27 8.68 27 8 27 C8 27.66 8 28.32 8 29 C4.30027808 30.84986096 0.04633368 30.32704123 -4 30 C-9.4900318 28.12839825 -12.44118186 22.97234061 -15 18 C-16.33000192 13.94386154 -16.2898715 10.83740655 -14.875 6.75 C-10.95378501 0.99888468 -7.05659057 -1.38364521 0 0 Z M-11 6 C-10.43454163 9.95820859 -9.19097652 12.6659053 -7 16 C-4.0280615 14.87548273 -1.66559313 13.77706209 1 12 C-0.16379648 8.68765616 -1.11238786 6.1101781 -4 4 C-8.04622502 3.63019987 -8.04622502 3.63019987 -11 6 Z " fill="#E0E0E0" transform="translate(181,130)"/>
<path d="M0 0 C-0.30987617 2.25036286 -0.62299818 4.50027894 -0.9375 6.75 C-1.19853516 8.62945312 -1.19853516 8.62945312 -1.46484375 10.546875 C-1.86049338 13.09982593 -2.30446422 15.5186291 -3 18 C-1.35333797 17.8864371 0.29236082 17.75882619 1.9375 17.625 C3.31228516 17.52058594 3.31228516 17.52058594 4.71484375 17.4140625 C5.46894531 17.27742188 6.22304687 17.14078125 7 17 C8.14352916 14.71294169 8.10334439 13.40735238 8.0625 10.875 C8.041875 9.59625 8.02125 8.3175 8 7 C6.02 6.34 4.04 5.68 2 5 C2 4.34 2 3.68 2 3 C3.98 3 5.96 3 8 3 C8 3.66 8 4.32 8 5 C8.66 5 9.32 5 10 5 C12.69837974 9.04756961 12.65697693 12.24705582 12 17 C10.32104295 20.4200977 9.17579575 22.37886408 5.7890625 24.16796875 C-0.06478638 25.91428501 -7.46608291 25.33870109 -13.17578125 23.17578125 C-16.17342259 21.29388731 -17.68845136 19.21446518 -19 16 C-19.265625 13.78125 -19.265625 13.78125 -19.25 11.5 C-19.25515625 10.7471875 -19.2603125 9.994375 -19.265625 9.21875 C-18.97250404 6.7703279 -18.21816769 5.12695946 -17 3 C-16.34 3 -15.68 3 -15 3 C-15 2.34 -15 1.68 -15 1 C-10.05183286 -1.80396138 -5.38317715 -0.77350507 0 0 Z M-16 8 C-16.50014953 10.45741537 -16.50014953 10.45741537 -16 13 C-14.50098982 14.98009206 -14.50098982 14.98009206 -12 16 C-8.33285151 16.25063732 -8.33285151 16.25063732 -5 16 C-4.67 13.03 -4.34 10.06 -4 7 C-8.2916185 5.5694605 -12.62138797 4.62138797 -16 8 Z " fill="#DEDEDE" transform="translate(130,215)"/>
<path d="M0 0 C3.3 0.66 6.6 1.32 10 2 C10 2.99 10 3.98 10 5 C7.36 5 4.72 5 2 5 C1.67 7.97 1.34 10.94 1 14 C2.98 14 4.96 14 7 14 C7 13.34 7 12.68 7 12 C8.63604196 10.62926214 10.30678061 9.29944744 12 8 C12.556875 7.443125 13.11375 6.88625 13.6875 6.3125 C15.68661425 4.31338575 16.98791378 4.0016115 19.8125 3.625 C23 4 23 4 25.875 5.9375 C28.73396197 10.05776872 28.69070152 13.12966876 28 18 C27.0625 20.875 27.0625 20.875 26 23 C25.67 23.99 25.34 24.98 25 26 C21.7 25.34 18.4 24.68 15 24 C15 23.01 15 22.02 15 21 C18.465 20.505 18.465 20.505 22 20 C23.50930183 16.6136749 23.50930183 16.6136749 24 13 C19.7450692 13.20261575 17.63298922 14.04459256 14.75 17.0625 C14.03070313 17.88427734 14.03070313 17.88427734 13.296875 18.72265625 C12 20 12 20 10 20 C10 20.66 10 21.32 10 22 C8.56344146 22.08131463 7.1255517 22.13933559 5.6875 22.1875 C4.48673828 22.23970703 4.48673828 22.23970703 3.26171875 22.29296875 C1 22 1 22 -0.73046875 20.67578125 C-3.49006118 17.03311925 -3.22327951 13.3911637 -3 9 C-2.0625 5.75 -2.0625 5.75 -1 3 C-0.67 2.01 -0.34 1.02 0 0 Z " fill="#DEDEDE" transform="translate(360,260)"/>
<path d="M0 0 C0.70318359 -0.01611328 1.40636719 -0.03222656 2.13085938 -0.04882812 C6.6226644 -0.05303788 9.55578052 0.45158521 13.0625 3.3125 C15.94151229 7.53038426 15.8433265 12.40334328 15.0625 17.3125 C13.37962073 20.43427233 11.2797593 22.70387035 8.0625 24.3125 C6.35547265 24.38246014 4.64581997 24.39690154 2.9375 24.375 C1.32875 24.354375 -0.28 24.33375 -1.9375 24.3125 C-1.9375 18.7025 -1.9375 13.0925 -1.9375 7.3125 C-9.45511809 7.42082435 -9.45511809 7.42082435 -11.9375 10.3125 C-12.43760524 13.27019177 -12.43760524 13.27019177 -11.9375 16.3125 C-9.67349988 18.57650012 -7.98974368 19.29508544 -4.9375 20.3125 C-4.9375 21.3025 -4.9375 22.2925 -4.9375 23.3125 C-9.05702267 23.12089429 -10.68732341 22.53548348 -13.8125 19.75 C-16.10746884 16.65290613 -16.61911497 14.08901474 -16.36328125 10.2734375 C-15.52142624 6.39627037 -13.54136494 3.42872904 -10.29296875 1.16796875 C-6.89229996 -0.06710001 -3.57063444 -0.01627454 0 0 Z M1.0625 7.3125 C1.0625 10.6125 1.0625 13.9125 1.0625 17.3125 C6.59319113 17.75183257 6.59319113 17.75183257 11.5625 15.8125 C12.0575 15.3175 12.5525 14.8225 13.0625 14.3125 C12.48797254 10.38174356 12.48797254 10.38174356 10.0625 7.3125 C7.04423347 7.04009327 4.09879378 7.22574875 1.0625 7.3125 Z " fill="#DCDCDC" transform="translate(374.9375,235.6875)"/>
<path d="M0 0 C1.65 0 3.3 0 5 0 C5.88565586 2.65696758 6.1450262 4.28190083 6.20532227 7.01245117 C6.22526749 7.81305466 6.24521271 8.61365814 6.26576233 9.43852234 C6.28247482 10.29798965 6.29918732 11.15745697 6.31640625 12.04296875 C6.33718735 12.9265657 6.35796844 13.81016266 6.37937927 14.72053528 C6.44475754 17.54277785 6.50370528 20.36511335 6.5625 23.1875 C6.60569637 25.10092106 6.64931102 27.01433273 6.69335938 28.92773438 C6.80042695 33.61839437 6.90172752 38.30914783 7 43 C7.99 43 8.98 43 10 43 C10 43.66 10 44.32 10 45 C8.24929483 44.88529863 6.49942464 44.75780972 4.75 44.625 C3.77546875 44.55539062 2.8009375 44.48578125 1.796875 44.4140625 C-0.89633189 44.01534751 -2.66963279 43.36492937 -5 42 C-4.67 41.34 -4.34 40.68 -4 40 C-3.01 40 -2.02 40 -1 40 C-1.24447876 39.17773926 -1.24447876 39.17773926 -1.49389648 38.33886719 C-2.06803556 35.68558577 -2.11273652 33.29257322 -2.09765625 30.578125 C-2.09443359 29.55332031 -2.09121094 28.52851563 -2.08789062 27.47265625 C-2.07951172 26.40917969 -2.07113281 25.34570312 -2.0625 24.25 C-2.05798828 23.17105469 -2.05347656 22.09210938 -2.04882812 20.98046875 C-2.03705727 18.32025617 -2.02061399 15.66015635 -2 13 C-2.99 13 -3.98 13 -5 13 C-4.48474397 7.71862571 -2.74522883 4.42778844 0 0 Z " fill="#EBEBEB" transform="translate(233,358)"/>
<path d="M0 0 C0.66 0 1.32 0 2 0 C2.23340088 0.61963623 2.46680176 1.23927246 2.70727539 1.87768555 C4.37905344 4.62230624 5.66044324 4.96612083 8.68359375 5.95703125 C9.61107422 6.26447266 10.53855469 6.57191406 11.49414062 6.88867188 C12.46544922 7.19353516 13.43675781 7.49839844 14.4375 7.8125 C15.40494141 8.13669922 16.37238281 8.46089844 17.36914062 8.79492188 C22.64409751 10.74777963 22.64409751 10.74777963 28 10 C27.54177532 13.46941546 27.10868317 16.67395049 26 20 C16.65195297 18.3142866 7.73916076 14.63487217 -1 11 C-1 11.66 -1 12.32 -1 13 C-1.99 13.33 -2.98 13.66 -4 14 C-4.99 15.485 -4.99 15.485 -6 17 C-6.66 16.67 -7.32 16.34 -8 16 C-7.67 15.01 -7.34 14.02 -7 13 C-9.64 13 -12.28 13 -15 13 C-15.28875 13.7425 -15.5775 14.485 -15.875 15.25 C-17 18 -17 18 -18.125 19.9375 C-19.29033839 22.68436906 -19.13409042 25.05001069 -19 28 C-18.34 28 -17.68 28 -17 28 C-17.66 29.32 -18.32 30.64 -19 32 C-21.49029902 29.35405729 -22.89524381 27.70336298 -23.4375 24.0625 C-22.54665394 17.82657757 -19.54375386 14.18503645 -15 10 C-14.67 9.67 -14.34 9.34 -14 9 C-8.47058824 8.76470588 -8.47058824 8.76470588 -6 10 C-6 10.66 -6 11.32 -6 12 C-5.34 12 -4.68 12 -4 12 C-3.71125 10.948125 -3.4225 9.89625 -3.125 8.8125 C-2.22774807 5.77181289 -1.23576581 2.91287656 0 0 Z " fill="#E0E0E0" transform="translate(355,280)"/>
<path d="M0 0 C3.72644533 2.51130011 5.45593346 5.16660216 7.875 8.9375 C7.545 9.5975 7.215 10.2575 6.875 10.9375 C3.875 9.9375 3.875 9.9375 2.25 7.8125 C-0.61467578 5.55091385 -1.36672696 5.78058432 -4.875 6.1875 C-6.29520201 6.41656484 -7.71345901 6.66001758 -9.125 6.9375 C-9.125 7.5975 -9.125 8.2575 -9.125 8.9375 C-10.78789062 9.73414063 -10.78789062 9.73414063 -12.484375 10.546875 C-13.94812706 11.25998498 -15.41165714 11.97355071 -16.875 12.6875 C-17.60460937 13.03554688 -18.33421875 13.38359375 -19.0859375 13.7421875 C-23.01037222 15.66872818 -26.41739866 17.38377325 -29.125 20.9375 C-29.45917929 24.6050213 -29.45917929 24.6050213 -29.125 27.9375 C-27.475 27.9375 -25.825 27.9375 -24.125 27.9375 C-24.125 28.2675 -24.125 28.5975 -24.125 28.9375 C-25.775 28.9375 -27.425 28.9375 -29.125 28.9375 C-28.465 29.9275 -27.805 30.9175 -27.125 31.9375 C-27.455 32.9275 -27.785 33.9175 -28.125 34.9375 C-35.1869469 23.50387168 -35.1869469 23.50387168 -34.125 15.9375 C-33.125 13.4375 -33.125 13.4375 -32.125 11.9375 C-31.465 11.9375 -30.805 11.9375 -30.125 11.9375 C-30.125 11.2775 -30.125 10.6175 -30.125 9.9375 C-26.03435972 6.9239994 -21.70280493 4.52248642 -17.1875 2.1875 C-16.02347656 1.57390625 -14.85945313 0.9603125 -13.66015625 0.328125 C-8.75063133 -1.60313563 -4.98010891 -1.69323703 0 0 Z " fill="#DEDEDE" transform="translate(147.125,294.0625)"/>
<path d="M0 0 C0 0.99 0 1.98 0 3 C-0.66 3 -1.32 3 -2 3 C1.3 10.59 4.6 18.18 8 26 C8.99 26 9.98 26 11 26 C10 29 10 29 8.25 30.1875 C6 31 6 31 3.4375 30.875 C2.633125 30.91625 1.82875 30.9575 1 31 C0.3503125 31.99 0.3503125 31.99 -0.3125 33 C-2 35 -2 35 -3.890625 35.37109375 C-6.0625 35.4375 -6.0625 35.4375 -10 35 C-12 32 -12 32 -11.625 29.8125 C-11.41875 29.214375 -11.2125 28.61625 -11 28 C-9.35 27.67 -7.7 27.34 -6 27 C-5.67 28.65 -5.34 30.3 -5 32 C-4.34 32 -3.68 32 -3 32 C-1.2995159 26.11955499 -2.9947666 22.12356074 -5.1875 16.6875 C-5.49236328 15.86443359 -5.79722656 15.04136719 -6.11132812 14.19335938 C-6.41876953 13.41154297 -6.72621094 12.62972656 -7.04296875 11.82421875 C-7.32164795 11.11354248 -7.60032715 10.40286621 -7.88745117 9.6706543 C-8.89167744 7.79826001 -8.89167744 7.79826001 -11.12231445 7.26098633 C-11.74195068 7.17486084 -12.36158691 7.08873535 -13 7 C-12 4 -12 4 -10.0390625 2.83203125 C-9.24242187 2.49558594 -8.44578125 2.15914063 -7.625 1.8125 C-6.83351563 1.46832031 -6.04203125 1.12414062 -5.2265625 0.76953125 C-3 0 -3 0 0 0 Z " fill="#DADADA" transform="translate(303,346)"/>
<path d="M0 0 C0.99 0 1.98 0 3 0 C3 1.32 3 2.64 3 4 C4.69189453 4.17402344 4.69189453 4.17402344 6.41796875 4.3515625 C11.17448671 4.94887804 15.70041598 6.09110586 20.3125 7.375 C21.10978516 7.58382812 21.90707031 7.79265625 22.72851562 8.0078125 C23.49486328 8.21921875 24.26121094 8.430625 25.05078125 8.6484375 C26.08199097 8.92953369 26.08199097 8.92953369 27.1340332 9.21630859 C29.28492105 10.1196646 30.46502507 11.26616313 32 13 C31 16 31 16 29.37695312 16.93554688 C28.33958008 17.32323242 28.33958008 17.32323242 27.28125 17.71875 C26.51296875 18.01136719 25.7446875 18.30398438 24.953125 18.60546875 C24.14359375 18.90066406 23.3340625 19.19585937 22.5 19.5 C21.72140625 19.79519531 20.9428125 20.09039062 20.140625 20.39453125 C15.38620058 22.18137619 10.6146622 23.77098353 5.73242188 25.17382812 C5.16072266 25.44646484 4.58902344 25.71910156 4 26 C3.67 26.99 3.34 27.98 3 29 C2.34 29 1.68 29 1 29 C1 25.37 1 21.74 1 18 C3.62353518 16.99600476 6.24867795 15.99665555 8.875 15 C9.62136719 14.71382812 10.36773437 14.42765625 11.13671875 14.1328125 C16.7734375 12 16.7734375 12 19 12 C19 11.34 19 10.68 19 10 C18.14728516 9.92652344 18.14728516 9.92652344 17.27734375 9.8515625 C12.28918871 9.36856919 7.77400422 8.52361837 3 7 C3 7.66 3 8.32 3 9 C2.01 9 1.02 9 0 9 C0 6.03 0 3.06 0 0 Z " fill="#E2E2E2" transform="translate(109,240)"/>
<path d="M0 0 C6.16654082 0.62768091 11.70916076 2.38132217 17.5625 4.375 C18.94211914 4.83132812 18.94211914 4.83132812 20.34960938 5.296875 C25.11167786 6.89906627 29.52169929 8.70164971 34 11 C37.23129786 11.30774265 39.89780556 10.91916872 43 10 C42.69209738 12.84809926 42.34521809 14.58286148 40.5 16.8125 C36.00457354 18.94782757 31.46563322 18.79757875 26.75390625 17.2734375 C25.15051905 16.60828868 23.55584298 15.92189246 21.96875 15.21875 C17.50065095 13.38447776 12.8930853 12.04771015 8.26928711 10.66333008 C3.09750346 9.09750346 3.09750346 9.09750346 2 8 C1.67 8.66 1.34 9.32 1 10 C0.01 10 -0.98 10 -2 10 C-1.46274105 6.62294375 -0.88935377 3.303314 0 0 Z " fill="#E0E0E0" transform="translate(106,195)"/>
<path d="M0 0 C2.28347222 0.01424944 4.53964583 0.09379402 6.81640625 0.265625 C7.19773924 2.2570306 7.52966207 4.25841577 7.81640625 6.265625 C6.81640625 7.265625 6.81640625 7.265625 4.25390625 7.328125 C3.04734375 7.2971875 3.04734375 7.2971875 1.81640625 7.265625 C1.48640625 5.945625 1.15640625 4.625625 0.81640625 3.265625 C-0.17359375 3.760625 -0.17359375 3.760625 -1.18359375 4.265625 C-1.79803398 10.7786914 -0.32489071 14.84500904 2.625 20.65234375 C3.79332055 23.21498785 4.38183116 25.49333563 4.81640625 28.265625 C5.80640625 27.935625 6.79640625 27.605625 7.81640625 27.265625 C7.81640625 28.585625 7.81640625 29.905625 7.81640625 31.265625 C4.18640625 32.585625 0.55640625 33.905625 -3.18359375 35.265625 C-3.67859375 33.780625 -3.67859375 33.780625 -4.18359375 32.265625 C-3.52359375 32.265625 -2.86359375 32.265625 -2.18359375 32.265625 C-3.469594 28.99253541 -4.76336388 25.72257204 -6.05859375 22.453125 C-6.60580078 21.0599707 -6.60580078 21.0599707 -7.1640625 19.63867188 C-7.51855469 18.74599609 -7.87304688 17.85332031 -8.23828125 16.93359375 C-8.56296387 16.11141357 -8.88764648 15.2892334 -9.22216797 14.44213867 C-10.20642907 12.04590334 -10.20642907 12.04590334 -12.18359375 9.265625 C-12.84359375 9.265625 -13.50359375 9.265625 -14.18359375 9.265625 C-14.18359375 8.275625 -14.18359375 7.285625 -14.18359375 6.265625 C-11.76914756 4.83484207 -10.46936377 4.251685 -7.62109375 4.390625 C-6.81671875 4.349375 -6.01234375 4.308125 -5.18359375 4.265625 C-4.77109375 3.605625 -4.35859375 2.945625 -3.93359375 2.265625 C-2.18359375 0.265625 -2.18359375 0.265625 0 0 Z " fill="#DCDCDC" transform="translate(200.18359375,116.734375)"/>
<path d="M0 0 C0.33 0 0.66 0 1 0 C1.61783483 8.83847052 1.61783483 8.83847052 -0.5625 12.9375 C-3.51686143 15.43734429 -6.37003432 16.80797045 -10 18 C-10.82886719 18.27972656 -11.65773438 18.55945313 -12.51171875 18.84765625 C-18.87391474 20.79897171 -25.35057407 22.0992568 -32 21 C-34.91920465 19.25651633 -35.823057 18.63404576 -36.75 15.3125 C-36.8325 14.549375 -36.915 13.78625 -37 13 C-36.40356689 13.02682861 -35.80713379 13.05365723 -35.19262695 13.08129883 C-28.53254978 13.24862446 -22.63071275 12.30642099 -16.1875 10.6875 C-15.27291016 10.47416016 -14.35832031 10.26082031 -13.41601562 10.04101562 C-6.81114189 8.43564458 -6.81114189 8.43564458 -1 5 C-0.11341534 2.40877257 -0.11341534 2.40877257 0 0 Z " fill="#E6E6E6" transform="translate(396,211)"/>
<path d="M0 0 C1.60379341 -0.05416188 3.20811406 -0.09286638 4.8125 -0.125 C5.70582031 -0.14820313 6.59914062 -0.17140625 7.51953125 -0.1953125 C10 0 10 0 13 2 C13 2.66 13 3.32 13 4 C13.556875 4.226875 14.11375 4.45375 14.6875 4.6875 C18.5096681 6.85683865 21.21713876 9.61220053 23.375 13.4375 C24.15670866 16.64250551 23.82903022 18.82205081 23 22 C22.34 22.99 21.68 23.98 21 25 C20.01 25 19.02 25 18 25 C18.061875 24.071875 18.12375 23.14375 18.1875 22.1875 C18.32377263 19.02056752 18.32377263 19.02056752 16.5 17.25 C16.005 16.8375 15.51 16.425 15 16 C15 15.34 15 14.68 15 14 C14.42121094 13.74347656 13.84242188 13.48695313 13.24609375 13.22265625 C10.05789233 11.48716574 7.70807892 9.05484287 5.09765625 6.55859375 C2.71397114 4.78747576 0.9179584 4.37045385 -2 4 C-1.34 2.68 -0.68 1.36 0 0 Z " fill="#E1E1E1" transform="translate(150,149)"/>
<path d="M0 0 C0.66 1.32 1.32 2.64 2 4 C0.35 4 -1.3 4 -3 4 C-3.2475 4.556875 -3.495 5.11375 -3.75 5.6875 C-5.22924818 8.42410913 -6.93467439 10.67650869 -9 13 C-9.66 13 -10.32 13 -11 13 C-11.268125 13.556875 -11.53625 14.11375 -11.8125 14.6875 C-13 17 -13 17 -14.5625 19.5625 C-16.11858764 22.00654778 -16.11858764 22.00654778 -17 25 C-20 24 -20 24 -22 21 C-22.26209293 14.57872313 -19.1905561 11.00802109 -15.1171875 6.24609375 C-10.41127006 1.25365366 -7.14702078 -0.57176166 0 0 Z " fill="#E1E1E1" transform="translate(171,325)"/>
<path d="M0 0 C1.134375 0.020625 2.26875 0.04125 3.4375 0.0625 C2.798125 0.289375 2.15875 0.51625 1.5 0.75 C-0.76673043 1.91756227 -0.76673043 1.91756227 -1.5625 4.4375 C-1.82339175 7.16547101 -1.82339175 7.16547101 0.0625 9.25 C3.41760954 11.81047833 5.84983083 13.13634508 10.125 12.9375 C12.59734463 12.26596616 12.59734463 12.26596616 13.75 10 C14.0903125 9.0409375 14.0903125 9.0409375 14.4375 8.0625 C15.125 10.8125 15.125 10.8125 15.4375 14.0625 C14.44442179 15.40099671 13.44392948 16.73401309 12.4375 18.0625 C12.18686268 21.72964849 12.18686268 21.72964849 12.4375 25.0625 C10.7875 25.3925 9.1375 25.7225 7.4375 26.0625 C6.375 24.1875 6.375 24.1875 5.4375 22.0625 C5.7675 21.4025 6.0975 20.7425 6.4375 20.0625 C5.2 19.815 3.9625 19.5675 2.6875 19.3125 C-1.10412576 18.3394279 -3.29825915 17.41357646 -5.5625 14.0625 C-6.85301124 9.0848138 -6.58255001 5.77595001 -4.5625 1.0625 C-3.5625 0.0625 -3.5625 0.0625 0 0 Z " fill="#D6D6D6" transform="translate(357.5625,303.9375)"/>
<path d="M0 0 C0.94875 0.86625 1.8975 1.7325 2.875 2.625 C9.15508535 7.98976927 15.88151048 12.23511097 24 14 C24 15.32 24 16.64 24 18 C16.58975514 20.47008162 11.96332033 18.39003408 5.16015625 15.09375 C4.09087891 14.55234375 4.09087891 14.55234375 3 14 C3 13.34 3 12.68 3 12 C2.01 11.67 1.02 11.34 0 11 C-1.49297212 8.01405576 -1.11755228 5.29146376 -1 2 C-0.67 1.34 -0.34 0.68 0 0 Z " fill="#E3E3E3" transform="translate(127,182)"/>
<path d="M0 0 C-0.125 1.75 -0.125 1.75 -1 4 C-6.22222222 8 -6.22222222 8 -9 8 C-9 8.66 -9 9.32 -9 10 C-10.80859375 11.3046875 -10.80859375 11.3046875 -13.4375 12.875 C-19.60876849 16.66960504 -25.47377684 20.83277536 -31.33569336 25.08740234 C-32.04089111 25.59352051 -32.74608887 26.09963867 -33.47265625 26.62109375 C-34.10437744 27.0792749 -34.73609863 27.53745605 -35.38696289 28.00952148 C-37 29 -37 29 -39 29 C-39 29.66 -39 30.32 -39 31 C-40.65 31.33 -42.3 31.66 -44 32 C-44 31.01 -44 30.02 -44 29 C-45.32 28.67 -46.64 28.34 -48 28 C-45.09399739 26.74335022 -43.20395416 26 -40 26 C-38.22864297 24.9135767 -38.22864297 24.9135767 -36.5 23.5 C-33.33333333 21 -33.33333333 21 -30 21 C-30 20.34 -30 19.68 -30 19 C-28.13319132 17.61750489 -26.20450208 16.31796366 -24.25 15.0625 C-19.90735053 12.27444893 -19.90735053 12.27444893 -15.734375 9.24609375 C-14 8 -14 8 -12 8 C-12 7.34 -12 6.68 -12 6 C-10.13671875 4.4921875 -10.13671875 4.4921875 -7.6875 2.875 C-6.48673828 2.06675781 -6.48673828 2.06675781 -5.26171875 1.2421875 C-3 0 -3 0 0 0 Z " fill="#CACACA" transform="translate(334,117)"/>
<path d="M0 0 C2 1 4 2 6 3 C6 3.66 6 4.32 6 5 C6.66 5 7.32 5 8 5 C8 5.99 8 6.98 8 8 C7.2575 7.896875 6.515 7.79375 5.75 7.6875 C2.75364411 7.71536191 2.75364411 7.71536191 0.8125 10.5 C0.214375 11.325 -0.38375 12.15 -1 13 C-1.66 13 -2.32 13 -3 13 C-3 13.66 -3 14.32 -3 15 C-3.66 15 -4.32 15 -5 15 C-5.268125 15.5775 -5.53625 16.155 -5.8125 16.75 C-7.02929189 19.05550043 -8.30333879 21.02056192 -10 23 C-10.66 23 -11.32 23 -12 23 C-12.309375 23.8353125 -12.309375 23.8353125 -12.625 24.6875 C-14.52440092 27.881947 -16.7574554 30.2151783 -20 32 C-23.62736545 32.69059458 -26.89676718 32.33945625 -30.4375 31.25 C-32.42027913 29.6637767 -32.67012361 28.47407292 -33 26 C-32.2265625 26.2165625 -32.2265625 26.2165625 -31.4375 26.4375 C-30.633125 26.623125 -29.82875 26.80875 -29 27 C-27.88625 27.268125 -26.7725 27.53625 -25.625 27.8125 C-21.08922286 28.04710916 -19.43367477 26.86139564 -16 24 C-15.67 23.34 -15.34 22.68 -15 22 C-14.34 22 -13.68 22 -13 22 C-13 21.34 -13 20.68 -13 20 C-12.34 20 -11.68 20 -11 20 C-10.566875 19.1028125 -10.566875 19.1028125 -10.125 18.1875 C-9 16 -9 16 -7 13 C-6.34 13 -5.68 13 -5 13 C-4.7525 12.4225 -4.505 11.845 -4.25 11.25 C-3 9 -3 9 -0.8125 7.0625 C-0.214375 6.381875 0.38375 5.70125 1 5 C0.85974801 2.29294488 0.85974801 2.29294488 0 0 Z " fill="#B9B9B9" transform="translate(356,140)"/>
<path d="M0 0 C3.82816757 2.02242815 6.89070191 4.1536329 9 8 C7.69862961 11.90411118 5.89642968 12.77520821 2.5625 15.125 C1.07943359 16.18074219 1.07943359 16.18074219 -0.43359375 17.2578125 C-3 19 -3 19 -5 20 C-5 19.34 -5 18.68 -5 18 C-5.99 17.67 -6.98 17.34 -8 17 C-6.60203108 14.20406217 -4.86525011 14.04826223 -2 13 C-1.34 12.67 -0.68 12.34 0 12 C-0.66 9.69 -1.32 7.38 -2 5 C-5.34252724 4.92572162 -7.8035914 4.93453047 -11 6 C-11.66 5.34 -12.32 4.68 -13 4 C-9.02699622 0.02699622 -5.48828177 -1.07613368 0 0 Z " fill="#DBDBDB" transform="translate(181,130)"/>
<path d="M0 0 C0.33 0.99 0.66 1.98 1 3 C1.66 3.33 2.32 3.66 3 4 C2.34 4 1.68 4 1 4 C1 4.66 1 5.32 1 6 C-1.5 7.625 -1.5 7.625 -4 9 C-3.01041003 12.06550592 -3.01041003 12.06550592 -1 15 C2.59385054 15.97873538 2.59385054 15.97873538 6 16 C6.33 15.34 6.66 14.68 7 14 C7 14.66 7 15.32 7 16 C7.66 16.33 8.32 16.66 9 17 C5.5623696 20.16261997 2.63474925 20.84018106 -2 21 C-6.7187525 19.3012491 -9.63284522 16.66425668 -13 13 C-12.34 11.68 -11.68 10.36 -11 9 C-10.34 9 -9.68 9 -9 9 C-9 8.34 -9 7.68 -9 7 C-7.28515625 5.78125 -7.28515625 5.78125 -5.0625 4.5 C-1.94567974 2.81545121 -1.94567974 2.81545121 0 0 Z " fill="#D0D0D0" transform="translate(322,347)"/>
<path d="M0 0 C4.57559208 1.22759787 7.67036424 3.03743199 11.2890625 5.9765625 C13.23984364 7.3422285 13.23984364 7.3422285 17 7 C17 7.66 17 8.32 17 9 C14.1875 9.625 14.1875 9.625 11 10 C10.01 9.34 9.02 8.68 8 8 C7.01 8 6.02 8 5 8 C3.66308585 10.75247031 2.98162385 12.60491277 3.125 15.6875 C3.79653384 18.15984463 3.79653384 18.15984463 6.0625 19.3125 C6.701875 19.539375 7.34125 19.76625 8 20 C2.25 21.125 2.25 21.125 0 20 C0 19.34 0 18.68 0 18 C-0.66 18 -1.32 18 -2 18 C-4.24359229 13.64479143 -4.08039825 10.7371308 -3 6 C-1.4375 2.5625 -1.4375 2.5625 0 0 Z " fill="#D5D5D5" transform="translate(177,350)"/>
<path d="M0 0 C1.65 5.61 3.3 11.22 5 17 C3.68 17 2.36 17 1 17 C0.34 14.03 -0.32 11.06 -1 8 C-3.97 8.66 -6.94 9.32 -10 10 C-10.103125 10.94875 -10.20625 11.8975 -10.3125 12.875 C-11 16 -11 16 -14 18 C-14.78291815 8.06563859 -14.78291815 8.06563859 -11.75 3.9375 C-7.18315019 0.71994673 -5.82082855 0 0 0 Z " fill="#CFCFCF" transform="translate(127,268)"/>
<path d="M0 0 C1.258125 -0.020625 2.51625 -0.04125 3.8125 -0.0625 C4.52019531 -0.07410156 5.22789062 -0.08570312 5.95703125 -0.09765625 C8 0 8 0 11 1 C11 1.66 11 2.32 11 3 C9.35 3 7.7 3 6 3 C5.95101563 3.969375 5.90203125 4.93875 5.8515625 5.9375 C5.46054985 13.17989281 4.9614546 20.4127637 4.1875 27.625 C4.05730469 28.89601563 3.92710937 30.16703125 3.79296875 31.4765625 C2.87064307 35.57477809 1.51107211 37.68925583 -1 41 C-2.32 40.34 -3.64 39.68 -5 39 C-4.360625 38.21625 -3.72125 37.4325 -3.0625 36.625 C-0.0257484 32.76004342 0.26669255 30.33307448 0.75390625 25.4609375 C0.88603516 24.15898438 1.01816406 22.85703125 1.15429688 21.515625 C1.29044908 20.135425 1.42651568 18.75521655 1.5625 17.375 C1.70211459 15.98694297 1.84208417 14.5989216 1.98242188 13.2109375 C2.32511632 9.80762713 2.66415045 6.40399154 3 3 C2.01 3 1.02 3 0 3 C0 2.01 0 1.02 0 0 Z " fill="#CFCFCF" transform="translate(273,98)"/>
<path d="M0 0 C0.103125 0.639375 0.20625 1.27875 0.3125 1.9375 C0.6528125 2.9584375 0.6528125 2.9584375 1 4 C1.99 4.33 2.98 4.66 4 5 C3.34 5 2.68 5 2 5 C2 5.66 2 6.32 2 7 C1.01 7.33 0.02 7.66 -1 8 C-1.99 9.485 -1.99 9.485 -3 11 C-3.66 10.67 -4.32 10.34 -5 10 C-4.67 9.01 -4.34 8.02 -4 7 C-6.64 7 -9.28 7 -12 7 C-12.28875 7.7425 -12.5775 8.485 -12.875 9.25 C-14 12 -14 12 -15.125 13.9375 C-16.29033839 16.68436906 -16.13409042 19.05001069 -16 22 C-15.34 22 -14.68 22 -14 22 C-14.66 23.32 -15.32 24.64 -16 26 C-18.49029902 23.35405729 -19.89524381 21.70336298 -20.4375 18.0625 C-19.54665394 11.82657757 -16.54375386 8.18503645 -12 4 C-11.67 3.67 -11.34 3.34 -11 3 C-5.47058824 2.76470588 -5.47058824 2.76470588 -3 4 C-3 4.66 -3 5.32 -3 6 C-2.34 6 -1.68 6 -1 6 C-0.67 4.02 -0.34 2.04 0 0 Z " fill="#B0B0B0" transform="translate(352,286)"/>
<path d="M0 0 C0.99 0.33 1.98 0.66 3 1 C3 1.99 3 2.98 3 4 C2.34 4 1.68 4 1 4 C0.61714844 5.25683594 0.61714844 5.25683594 0.2265625 6.5390625 C-1.11768918 10.33207838 -2.79014193 13.80224791 -4.625 17.375 C-4.94984375 18.01566406 -5.2746875 18.65632813 -5.609375 19.31640625 C-6.40257407 20.87947501 -7.20077031 22.44000622 -8 24 C-8.66 24 -9.32 24 -10 24 C-10 24.99 -10 25.98 -10 27 C-9.01 27 -8.02 27 -7 27 C-7 27.99 -7 28.98 -7 30 C-10.46941546 29.54177532 -13.67395049 29.10868317 -17 28 C-16.505 26.515 -16.505 26.515 -16 25 C-15.01 25.33 -14.02 25.66 -13 26 C-12.60941406 24.69675781 -12.60941406 24.69675781 -12.2109375 23.3671875 C-10.99224465 19.97843512 -9.49163519 17.1980195 -7.625 14.125 C-4.86106016 9.4972761 -2.3348647 4.85651857 0 0 Z " fill="#B8B8B8" transform="translate(208,364)"/>
<path d="M0 0 C0.99 0 1.98 0 3 0 C3 1.32 3 2.64 3 4 C4.0725 4.103125 5.145 4.20625 6.25 4.3125 C11.95287077 5.0099734 17.45572761 6.53076782 23 8 C22.67 9.32 22.34 10.64 22 12 C21.01 12 20.02 12 19 12 C19 11.34 19 10.68 19 10 C18.14728516 9.92652344 18.14728516 9.92652344 17.27734375 9.8515625 C12.28918871 9.36856919 7.77400422 8.52361837 3 7 C3 7.66 3 8.32 3 9 C2.01 9 1.02 9 0 9 C0 6.03 0 3.06 0 0 Z " fill="#BABABA" transform="translate(109,240)"/>
<path d="M0 0 C1.875 1.1875 1.875 1.1875 3 3 C2.75546876 6.34192692 2.39456443 7.60543557 0 10 C-3.625 9.625 -3.625 9.625 -7 9 C-8.33157895 3.55263158 -8.33157895 3.55263158 -6.875 1.125 C-4.36737712 -0.37957373 -2.87879197 -0.4318188 0 0 Z " fill="#DCDCDC" transform="translate(231,119)"/>
<path d="M0 0 C3.5625 0.1875 3.5625 0.1875 5.5625 2.1875 C5.9375 4.625 5.9375 4.625 5.5625 7.1875 C3.8125 9.0625 3.8125 9.0625 1.5625 10.1875 C-0.78940998 9.91080471 -2.32437074 9.24406463 -4.4375 8.1875 C-4.47991723 5.85455225 -4.47842937 3.52047433 -4.4375 1.1875 C-3.4375 0.1875 -3.4375 0.1875 0 0 Z " fill="#E0E0E0" transform="translate(270.4375,368.8125)"/>
<path d="M0 0 C0.33 0 0.66 0 1 0 C1 3.3 1 6.6 1 10 C3.10375 9.7834375 3.10375 9.7834375 5.25 9.5625 C6.03890625 9.48128906 6.8278125 9.40007812 7.640625 9.31640625 C9.82364639 9.02365007 11.8773182 8.57935581 14 8 C13.25 12.75 13.25 12.75 11 15 C7.31975395 15.27629475 3.69505443 15.0859315 0 15 C0 10.05 0 5.1 0 0 Z " fill="#F6F6F6" transform="translate(374,244)"/>
<path d="M0 0 C0.99 0 1.98 0 3 0 C3 0.66 3 1.32 3 2 C4.12019531 1.89300781 5.24039062 1.78601563 6.39453125 1.67578125 C7.86711817 1.5538473 9.33977867 1.43279968 10.8125 1.3125 C11.91948242 1.20325195 11.91948242 1.20325195 13.04882812 1.09179688 C15.20703125 0.92578125 15.20703125 0.92578125 19 1 C19.99 1.99 20.98 2.98 22 4 C17.05 4.66 12.1 5.32 7 6 C7 6.99 7 7.98 7 9 C6.01 9 5.02 9 4 9 C0 2.25 0 2.25 0 0 Z " fill="#B4B4B4" transform="translate(333,174)"/>
<path d="M0 0 C1.32 0 2.64 0 4 0 C4.33 1.65 4.66 3.3 5 5 C5.66 5 6.32 5 7 5 C7.33 3.35 7.66 1.7 8 0 C9.125 1.75 9.125 1.75 10 4 C9.125 6.25 9.125 6.25 8 8 C6.72125 8.061875 5.4425 8.12375 4.125 8.1875 C3.40570313 8.22230469 2.68640625 8.25710938 1.9453125 8.29296875 C1.30335938 8.19628906 0.66140625 8.09960938 0 8 C-2 5 -2 5 -1.6875 2.875 C-1 1 -1 1 0 0 Z " fill="#C7C7C7" transform="translate(293,373)"/>
<path d="M0 0 C1.22419811 3.67259434 0.54143712 4.57458418 -1 8 C-1.33 8.99 -1.66 9.98 -2 11 C-5.3 10.34 -8.6 9.68 -12 9 C-12 8.01 -12 7.02 -12 6 C-10.906875 5.9175 -9.81375 5.835 -8.6875 5.75 C-4.98032943 5.37506279 -4.98032943 5.37506279 -3.1875 3 C-2.795625 2.34 -2.40375 1.68 -2 1 C-1.34 0.67 -0.68 0.34 0 0 Z " fill="#CFCFCF" transform="translate(387,275)"/>
<path d="M0 0 C2.97 0 5.94 0 9 0 C9.38133299 1.9914056 9.71325582 3.99279077 10 6 C9 7 9 7 6.4375 7.0625 C5.2309375 7.0315625 5.2309375 7.0315625 4 7 C3.67 5.68 3.34 4.36 3 3 C1.35 3.33 -0.3 3.66 -2 4 C-1.34 2.68 -0.68 1.36 0 0 Z " fill="#C8C8C8" transform="translate(198,117)"/>
<path d="M0 0 C0.93423645 3.01031744 1.04449911 3.86650268 0 7 C-0.66 7 -1.32 7 -2 7 C-2 7.99 -2 8.98 -2 10 C-1.01 10 -0.02 10 1 10 C1 10.99 1 11.98 1 13 C-2.46941546 12.54177532 -5.67395049 12.10868317 -9 11 C-8.67 10.01 -8.34 9.02 -8 8 C-7.01 8.33 -6.02 8.66 -5 9 C-4.5978125 7.6078125 -4.5978125 7.6078125 -4.1875 6.1875 C-3.08851629 3.23759634 -2.37581439 1.94384814 0 0 Z " fill="#C2C2C2" transform="translate(200,381)"/>
<path d="M0 0 C1.75 0.125 1.75 0.125 4 1 C8 6.22222222 8 6.22222222 8 9 C6.68 8.67 5.36 8.34 4 8 C4 7.34 4 6.68 4 6 C3.39671875 6.09539062 2.7934375 6.19078125 2.171875 6.2890625 C0.97304688 6.45535156 0.97304688 6.45535156 -0.25 6.625 C-1.03890625 6.74101562 -1.8278125 6.85703125 -2.640625 6.9765625 C-5 7 -5 7 -9 5 C-5.7 4.67 -2.4 4.34 1 4 C0.67 2.68 0.34 1.36 0 0 Z " fill="#CFCFCF" transform="translate(378,170)"/>
<path d="M0 0 C0.66 0.33 1.32 0.66 2 1 C1.67 1.33 1.34 1.66 1 2 C3.97 2.495 3.97 2.495 7 3 C7 3.33 7 3.66 7 4 C5.865625 4.309375 4.73125 4.61875 3.5625 4.9375 C0.21224901 5.62924531 0.21224901 5.62924531 -1 7 C-1.07179964 8.51928038 -1.08392007 10.04167482 -1.0625 11.5625 C-1.05347656 12.38878906 -1.04445313 13.21507812 -1.03515625 14.06640625 C-1.02355469 14.70449219 -1.01195312 15.34257812 -1 16 C-1.99 16 -2.98 16 -4 16 C-5.44667651 7.99970458 -5.44667651 7.99970458 -3.6875 4.0625 C-2 2 -2 2 0 0 Z " fill="#BFBFBF" transform="translate(311,338)"/>
<path d="M0 0 C3 0.125 3 0.125 4 1.125 C4.04063832 2.79117115 4.042721 4.45888095 4 6.125 C1.6875 7.25 1.6875 7.25 -1 8.125 C-1.99 7.465 -2.98 6.805 -4 6.125 C-4.25 3.5625 -4.25 3.5625 -4 1.125 C-3 0.125 -3 0.125 0 0 Z " fill="#D1D1D1" transform="translate(390,295.875)"/>
<path d="M0 0 C0 0.66 0 1.32 0 2 C0.66 2.33 1.32 2.66 2 3 C-0.90180761 4.04465074 -2.37292539 3.93340618 -5.5 3.375 C-8.95297844 2.64192973 -8.95297844 2.64192973 -11.3125 4.4375 C-11.869375 4.953125 -12.42625 5.46875 -13 6 C-13.66 6 -14.32 6 -15 6 C-14.7041325 3.13994749 -14.15920836 2.14428257 -12 0.1875 C-7.80368655 -1.47354074 -4.36253252 -0.78886754 0 0 Z " fill="#CACACA" transform="translate(196,343)"/>
<path d="M0 0 C3.3 0.66 6.6 1.32 10 2 C10 2.99 10 3.98 10 5 C7.36 5 4.72 5 2 5 C1.34 6.32 0.68 7.64 0 9 C0 8.34 0 7.68 0 7 C-0.66 6.67 -1.32 6.34 -2 6 C-1.34 4.02 -0.68 2.04 0 0 Z " fill="#BCBCBC" transform="translate(360,260)"/>
<path d="M0 0 C0.99 0 1.98 0 3 0 C4.16983345 2.3396669 4.1661241 3.83391527 4.1875 6.4375 C4.20167969 7.21996094 4.21585938 8.00242188 4.23046875 8.80859375 C4 11 4 11 2 14 C1.34 14 0.68 14 0 14 C0 14.66 0 15.32 0 16 C-0.66 15.67 -1.32 15.34 -2 15 C-1.67 14.34 -1.34 13.68 -1 13 C-1.66 12.67 -2.32 12.34 -3 12 C-2.319375 11.505 -1.63875 11.01 -0.9375 10.5 C1.19795864 8.25732688 1.19795864 8.25732688 1.04296875 5.953125 C0.77740767 3.95610564 0.39509536 1.97547682 0 0 Z " fill="#B0B0B0" transform="translate(189,143)"/>
<path d="M0 0 C0.33 0.66 0.66 1.32 1 2 C1.66 2.33 2.32 2.66 3 3 C2.34 4.65 1.68 6.3 1 8 C0.34 8 -0.32 8 -1 8 C-1.12375 8.5775 -1.2475 9.155 -1.375 9.75 C-2.00648824 12.02335767 -2.88858191 13.9253529 -4 16 C-4.99 15.34 -5.98 14.68 -7 14 C-4.69 9.38 -2.38 4.76 0 0 Z " fill="#B6B6B6" transform="translate(227,369)"/>
<path d="M0 0 C1.258125 -0.020625 2.51625 -0.04125 3.8125 -0.0625 C4.52019531 -0.07410156 5.22789062 -0.08570312 5.95703125 -0.09765625 C8 0 8 0 11 1 C11 1.66 11 2.32 11 3 C9.35 3 7.7 3 6 3 C6 5.64 6 8.28 6 11 C4.5 9.8125 4.5 9.8125 3 8 C2.8125 5.3125 2.8125 5.3125 3 3 C2.01 3 1.02 3 0 3 C0 2.01 0 1.02 0 0 Z " fill="#B2B2B2" transform="translate(273,98)"/>
<path d="M0 0 C-0.125 1.75 -0.125 1.75 -1 4 C-3.75 6.3125 -3.75 6.3125 -7 8 C-9.875 7.75 -9.875 7.75 -12 7 C-10.33784732 5.66104368 -8.67036393 4.32869858 -7 3 C-6.29875 2.4225 -5.5975 1.845 -4.875 1.25 C-3 0 -3 0 0 0 Z " fill="#A5A5A5" transform="translate(334,117)"/>
<path d="M0 0 C0.66 0 1.32 0 2 0 C2 1.32 2 2.64 2 4 C2.66 4.33 3.32 4.66 4 5 C-0.455 7.97 -0.455 7.97 -5 11 C-5 10.34 -5 9.68 -5 9 C-5.99 8.67 -6.98 8.34 -8 8 C-6.60203108 5.20406217 -4.86525011 5.04826223 -2 4 C-1.34 3.67 -0.68 3.34 0 3 C0 2.01 0 1.02 0 0 Z " fill="#AAAAAA" transform="translate(181,139)"/>
<path d="M0 0 C0.103125 0.639375 0.20625 1.27875 0.3125 1.9375 C0.6528125 2.9584375 0.6528125 2.9584375 1 4 C1.99 4.33 2.98 4.66 4 5 C3.34 5 2.68 5 2 5 C2 5.66 2 6.32 2 7 C1.01 7.33 0.02 7.66 -1 8 C-1.99 9.485 -1.99 9.485 -3 11 C-3.66 10.67 -4.32 10.34 -5 10 C-5.625 7.4375 -5.625 7.4375 -6 5 C-7.65 4.67 -9.3 4.34 -11 4 C-11 3.67 -11 3.34 -11 3 C-5.25 2.875 -5.25 2.875 -3 4 C-3 4.66 -3 5.32 -3 6 C-2.34 6 -1.68 6 -1 6 C-0.67 4.02 -0.34 2.04 0 0 Z " fill="#969696" transform="translate(352,286)"/>
<path d="M0 0 C0.66 0.33 1.32 0.66 2 1 C2 1.33 2 1.66 2 2 C3.65 2.33 5.3 2.66 7 3 C6.401875 3.12375 5.80375 3.2475 5.1875 3.375 C1.55749388 4.41214461 0.07850913 5.8822363 -2 9 C-2.99387334 10.33790641 -3.9926892 11.67218122 -5 13 C-4.61271765 7.28758534 -4.12989477 4.26311718 0 0 Z " fill="#AAAAAA" transform="translate(130,175)"/>
<path d="M0 0 C1.98 0 3.96 0 6 0 C6 0.66 6 1.32 6 2 C6.66 2 7.32 2 8 2 C8.66 3.65 9.32 5.3 10 7 C9.67 7 9.34 7 9 7 C8.67 8.65 8.34 10.3 8 12 C7.67 12 7.34 12 7 12 C6.67 9.36 6.34 6.72 6 4 C4.02 3.34 2.04 2.68 0 2 C0 1.34 0 0.68 0 0 Z " fill="#ACACAC" transform="translate(132,218)"/>
<path d="M0 0 C1.65 0 3.3 0 5 0 C4.01 0.495 4.01 0.495 3 1 C2.67 1.99 2.34 2.98 2 4 C0.37667033 5.38576923 -1.28724465 6.72641268 -3 8 C-2.67 8.66 -2.34 9.32 -2 10 C-3.65 10.33 -5.3 10.66 -7 11 C-6 9 -5 7 -4 5 C-3.34 5 -2.68 5 -2 5 C-1.34 3.35 -0.68 1.7 0 0 Z " fill="#B6B6B6" transform="translate(339,312)"/>
<path d="M0 0 C0.33 1.32 0.66 2.64 1 4 C0.34 4 -0.32 4 -1 4 C-1 4.66 -1 5.32 -1 6 C-2.65 6.33 -4.3 6.66 -6 7 C-6 6.01 -6 5.02 -6 4 C-7.32 3.67 -8.64 3.34 -10 3 C-7.09399739 1.74335022 -5.20395416 1 -2 1 C-1.34 0.67 -0.68 0.34 0 0 Z " fill="#9D9D9D" transform="translate(296,142)"/>
<path d="M0 0 C4.455 0.99 4.455 0.99 9 2 C8.67 3.32 8.34 4.64 8 6 C7.01 6 6.02 6 5 6 C5 5.34 5 4.68 5 4 C2.03 3.67 -0.94 3.34 -4 3 C-2.68 2.67 -1.36 2.34 0 2 C0 1.34 0 0.68 0 0 Z " fill="#A2A2A2" transform="translate(123,246)"/>
<path d="M0 0 C1.9453125 0.77734375 1.9453125 0.77734375 4.125 1.9375 C5.21167969 2.50791016 5.21167969 2.50791016 6.3203125 3.08984375 C6.87460937 3.39019531 7.42890625 3.69054687 8 4 C8 4.99 8 5.98 8 7 C3.96825194 6.72510809 2.43105369 6.46508424 -0.375 3.4375 C-1.179375 2.2309375 -1.179375 2.2309375 -2 1 C-1.34 0.67 -0.68 0.34 0 0 Z " fill="#C0C0C0" transform="translate(362,252)"/>
<path d="M0 0 C1.98 0.495 1.98 0.495 4 1 C3.01 1.495 3.01 1.495 2 2 C2.33 5.3 2.66 8.6 3 12 C0.35298978 10.67649489 -0.04357118 9.79571502 -1 7 C-0.625 3.25 -0.625 3.25 0 0 Z " fill="#BBBBBB" transform="translate(357,216)"/>
<path d="M0 0 C0 0.99 0 1.98 0 3 C-2.31 4.32 -4.62 5.64 -7 7 C-7 6.34 -7 5.68 -7 5 C-7.66 4.67 -8.32 4.34 -9 4 C-3.375 0 -3.375 0 0 0 Z " fill="#B8B8B8" transform="translate(325,124)"/>
<path d="M0 0 C1.75 0.125 1.75 0.125 4 1 C8 6.22222222 8 6.22222222 8 9 C6.68 8.67 5.36 8.34 4 8 C4 6.35 4 4.7 4 3 C3.01 3.33 2.02 3.66 1 4 C0.67 2.68 0.34 1.36 0 0 Z " fill="#A7A7A7" transform="translate(378,170)"/>
<path d="M0 0 C0.33 0.66 0.66 1.32 1 2 C1.99 2.33 2.98 2.66 4 3 C3.01 3.495 3.01 3.495 2 4 C1.27306096 5.97888961 0.60183749 7.97954558 0 10 C-0.66 10 -1.32 10 -2 10 C-2 9.34 -2 8.68 -2 8 C-2.99 7.67 -3.98 7.34 -5 7 C-4.01 7 -3.02 7 -2 7 C-1.34 4.69 -0.68 2.38 0 0 Z " fill="#AAAAAA" transform="translate(147,151)"/>
<path d="M0 0 C-0.1875 1.8125 -0.1875 1.8125 -1 4 C-3.375 5.8125 -3.375 5.8125 -6 7 C-6.99 6.67 -7.98 6.34 -9 6 C-8.34 6 -7.68 6 -7 6 C-7 5.01 -7 4.02 -7 3 C-4.46815512 0.64276511 -3.52809907 0 0 0 Z " fill="#CBCBCB" transform="translate(304,138)"/>
<path d="M0 0 C1.0828125 0.4640625 1.0828125 0.4640625 2.1875 0.9375 C4.80307309 1.92560539 7.25118982 2.5287754 10 3 C10 3.66 10 4.32 10 5 C6.10885099 6.01911045 4.39403493 6.16782969 0.625 4.5625 C-0.24125 4.046875 -1.1075 3.53125 -2 3 C-1.34 2.01 -0.68 1.02 0 0 Z " fill="#B6B6B6" transform="translate(184,354)"/>
<path d="M0 0 C1.4606285 2.64738916 2 3.89448334 2 7 C3.65 7 5.3 7 7 7 C7 7.33 7 7.66 7 8 C5.35 8 3.7 8 2 8 C2.99 9.485 2.99 9.485 4 11 C3.67 11.99 3.34 12.98 3 14 C-1.06153846 7.96923077 -1.06153846 7.96923077 -0.75 3.0625 C-0.5025 2.051875 -0.255 1.04125 0 0 Z " fill="#A7A7A7" transform="translate(116,315)"/>
<path d="M0 0 C1.22419811 3.67259434 0.54143712 4.57458418 -1 8 C-1.33 8.99 -1.66 9.98 -2 11 C-2.66 10.67 -3.32 10.34 -4 10 C-3.67 8.68 -3.34 7.36 -3 6 C-3.66 5.67 -4.32 5.34 -5 5 C-2.25 1.125 -2.25 1.125 0 0 Z " fill="#B6B6B6" transform="translate(387,275)"/>
<path d="M0 0 C-1.1858237 3.37503669 -2.27573689 5.64722731 -5 8 C-5.99 7.67 -6.98 7.34 -8 7 C-3.53191489 0 -3.53191489 0 0 0 Z " fill="#CCCCCC" transform="translate(345,161)"/>
<path d="M0 0 C2 2 2 2 2.1953125 4.6015625 C2.17210937 5.59929687 2.14890625 6.59703125 2.125 7.625 C2.10695313 8.62789062 2.08890625 9.63078125 2.0703125 10.6640625 C2.03550781 11.82035156 2.03550781 11.82035156 2 13 C1.34 11.68 0.68 10.36 0 9 C-0.99 9.495 -0.99 9.495 -2 10 C-2 7.03 -2 4.06 -2 1 C-1.34 0.67 -0.68 0.34 0 0 Z " fill="#B0B0B0" transform="translate(396,207)"/>
<path d="M0 0 C1.21236328 0.01353516 1.21236328 0.01353516 2.44921875 0.02734375 C3.37154297 0.04474609 3.37154297 0.04474609 4.3125 0.0625 C4.3125 0.7225 4.3125 1.3825 4.3125 2.0625 C-4.25892857 3.49107143 -4.25892857 3.49107143 -7.6875 1.0625 C-4.80538698 0.10179566 -2.98899956 -0.04331883 0 0 Z " fill="#D3D3D3" transform="translate(265.6875,137.9375)"/>
<path d="M0 0 C1.32 0 2.64 0 4 0 C5.42857143 8.57142857 5.42857143 8.57142857 3 12 C1.875 4.375 1.875 4.375 3 1 C2.01 0.67 1.02 0.34 0 0 Z " fill="#C5C5C5" transform="translate(123,221)"/>
<path d="M0 0 C0.33 0.66 0.66 1.32 1 2 C-1.34375 8.5625 -1.34375 8.5625 -5 11 C-5 10.01 -5 9.02 -5 8 C-5.66 7.67 -6.32 7.34 -7 7 C-6.21625 6.5875 -5.4325 6.175 -4.625 5.75 C-1.94108344 3.9607223 -1.11901051 2.95011861 0 0 Z " fill="#A5A5A5" transform="translate(156,188)"/>
<path d="M0 0 C3.63 0.33 7.26 0.66 11 1 C11 1.33 11 1.66 11 2 C8.69 2 6.38 2 4 2 C4 4.64 4 7.28 4 10 C3.67 10 3.34 10 3 10 C3 7.69 3 5.38 3 3 C2.01 3 1.02 3 0 3 C0 2.01 0 1.02 0 0 Z " fill="#ACACAC" transform="translate(250,95)"/>
<path d="M0 0 C0.33 0 0.66 0 1 0 C1 1.65 1 3.3 1 5 C1.99 5 2.98 5 4 5 C4 5.66 4 6.32 4 7 C4.66 7 5.32 7 6 7 C5.34 8.32 4.68 9.64 4 11 C1.29727467 8.12835434 0.05208163 6.69008159 -0.25 2.6875 C-0.1675 1.800625 -0.085 0.91375 0 0 Z " fill="#A5A5A5" transform="translate(332,301)"/>
<path d="M0 0 C0.33 0 0.66 0 1 0 C1.3125 2.1875 1.3125 2.1875 1 5 C-1.5 7.8125 -1.5 7.8125 -4 10 C-4 9.34 -4 8.68 -4 8 C-4.66 7.67 -5.32 7.34 -6 7 C-5.34 7 -4.68 7 -4 7 C-3.71125 6.401875 -3.4225 5.80375 -3.125 5.1875 C-2 3 -2 3 0 0 Z " fill="#B6B6B6" transform="translate(349,153)"/>
<path d="M0 0 C0.33 0 0.66 0 1 0 C1 2.31 1 4.62 1 7 C-0.65 6.67 -2.3 6.34 -4 6 C-3.34 4.68 -2.68 3.36 -2 2 C-1.34 2 -0.68 2 0 2 C0 1.34 0 0.68 0 0 Z " fill="#E6E6E6" transform="translate(368,323)"/>
<path d="M0 0 C-0.33 1.32 -0.66 2.64 -1 4 C-2.65 4.33 -4.3 4.66 -6 5 C-6 5.66 -6 6.32 -6 7 C-6.66 6.67 -7.32 6.34 -8 6 C-3.375 0 -3.375 0 0 0 Z " fill="#A5A5A5" transform="translate(331,325)"/>
<path d="M0 0 C-0.33 1.98 -0.66 3.96 -1 6 C-1.66 6 -2.32 6 -3 6 C-3 6.66 -3 7.32 -3 8 C-3.66 7.67 -4.32 7.34 -5 7 C-4.67 6.34 -4.34 5.68 -4 5 C-4.66 4.67 -5.32 4.34 -6 4 C-2.25 0 -2.25 0 0 0 Z " fill="#BBBBBB" transform="translate(192,151)"/>
<path d="M0 0 C1.32 0.66 2.64 1.32 4 2 C-0.75 6 -0.75 6 -3 6 C-3 4.68 -3 3.36 -3 2 C-2.01 1.34 -1.02 0.68 0 0 Z " fill="#BCBCBC" transform="translate(307,134)"/>
<path d="M0 0 C0.33 0.66 0.66 1.32 1 2 C1.66 2.33 2.32 2.66 3 3 C2.01 4.32 1.02 5.64 0 7 C-1.32 6.34 -2.64 5.68 -4 5 C-2.68 3.35 -1.36 1.7 0 0 Z " fill="#A4A4A4" transform="translate(272,132)"/>
<path d="M0 0 C0.33 0 0.66 0 1 0 C1.12375 0.78375 1.2475 1.5675 1.375 2.375 C1.79117993 5.14057822 1.79117993 5.14057822 4 7 C1.69 6.67 -0.62 6.34 -3 6 C-3 5.01 -3 4.02 -3 3 C-2.01 3 -1.02 3 0 3 C0 2.01 0 1.02 0 0 Z " fill="#B2B2B2" transform="translate(232,395)"/>
<path d="M0 0 C1.32 0.99 2.64 1.98 4 3 C3.67 4.65 3.34 6.3 3 8 C2.5875 7.54625 2.175 7.0925 1.75 6.625 C-0.06408095 4.94049626 -1.75285627 4.00734029 -4 3 C-2.68 2.67 -1.36 2.34 0 2 C0 1.34 0 0.68 0 0 Z " fill="#ADADAD" transform="translate(172,326)"/>
<path d="M0 0 C2.875 -0.125 2.875 -0.125 6 0 C6.66 0.66 7.32 1.32 8 2 C5.11604263 3.44197868 2.17569521 3.58833581 -1 4 C-0.67 2.68 -0.34 1.36 0 0 Z " fill="#D9D9D9" transform="translate(340,290)"/>
<path d="M0 0 C6.625 -0.125 6.625 -0.125 10 1 C10 1.66 10 2.32 10 3 C4.58461538 3.36923077 4.58461538 3.36923077 1.625 1.5 C1.08875 1.005 0.5525 0.51 0 0 Z " fill="#D8D8D8" transform="translate(113,245)"/>
<path d="M0 0 C0.66 0.99 1.32 1.98 2 3 C1.125 6.1875 1.125 6.1875 0 9 C-0.99 8.34 -1.98 7.68 -3 7 C-1.125 2.25 -1.125 2.25 0 0 Z " fill="#AAAAAA" transform="translate(202,375)"/>
<path d="M0 0 C0.66 0.33 1.32 0.66 2 1 C1.67 1.33 1.34 1.66 1 2 C3.97 2.495 3.97 2.495 7 3 C7 3.33 7 3.66 7 4 C4.36 4.66 1.72 5.32 -1 6 C-1 5.34 -1 4.68 -1 4 C-1.66 3.67 -2.32 3.34 -3 3 C-2.01 2.01 -1.02 1.02 0 0 Z " fill="#8B8B8B" transform="translate(311,338)"/>
<path d="M0 0 C1.32 1.65 2.64 3.3 4 5 C3.67 5.66 3.34 6.32 3 7 C0 6 0 6 -1.1875 3.9375 C-1.5896875 2.9784375 -1.5896875 2.9784375 -2 2 C-1.34 2 -0.68 2 0 2 C0 1.34 0 0.68 0 0 Z " fill="#BDBDBD" transform="translate(151,298)"/>
<path d="M0 0 C0.33 0 0.66 0 1 0 C1.125 2.875 1.125 2.875 1 6 C0.34 6.66 -0.32 7.32 -1 8 C-1 7.01 -1 6.02 -1 5 C-2.32 5.33 -3.64 5.66 -5 6 C-3.35830472 3.97945196 -1.69088222 1.97956942 0 0 Z " fill="#C2C2C2" transform="translate(389,247)"/>
<path d="M0 0 C3.96 0 7.92 0 12 0 C11.67 0.66 11.34 1.32 11 2 C8.93359375 2.4140625 8.93359375 2.4140625 6.4375 2.625 C5.61121094 2.69976562 4.78492188 2.77453125 3.93359375 2.8515625 C2.97646484 2.92503906 2.97646484 2.92503906 2 3 C1.34 2.01 0.68 1.02 0 0 Z " fill="#AAAAAA" transform="translate(151,349)"/>
<path d="M0 0 C2 1 2 1 3 3 C-0.75 6 -0.75 6 -3 6 C-2.42655063 3.13275314 -2.1385485 2.1385485 0 0 Z " fill="#BDBDBD" transform="translate(184,343)"/>
<path d="M0 0 C3.24208567 0.35049575 4.61527704 0.56221181 6.8125 3.0625 C7.204375 3.701875 7.59625 4.34125 8 5 C7.401875 4.67 6.80375 4.34 6.1875 4 C3.94613529 2.79212012 3.94613529 2.79212012 1 3 C0.67 2.01 0.34 1.02 0 0 Z " fill="#9E9E9E" transform="translate(338,125)"/>
<path d="M0 0 C2.76276177 0.52268466 5.3260876 1.10869587 8 2 C7.67 2.99 7.34 3.98 7 5 C5.68 4.67 4.36 4.34 3 4 C3 3.01 3 2.02 3 1 C2.01 0.67 1.02 0.34 0 0 Z " fill="#949494" transform="translate(297,104)"/>
<path d="M0 0 C0.66 0.33 1.32 0.66 2 1 C1.2884375 2.175625 1.2884375 2.175625 0.5625 3.375 C-0.33898023 4.88948678 -1.21179485 6.4235897 -2 8 C-2.66 6.68 -3.32 5.36 -4 4 C-2.68 3.34 -1.36 2.68 0 2 C0 1.34 0 0.68 0 0 Z " fill="#9E9E9E" transform="translate(313,354)"/>
<path d="M0 0 C1.134375 0.020625 2.26875 0.04125 3.4375 0.0625 C2.81875 0.35125 2.2 0.64 1.5625 0.9375 C-0.69575765 1.99970042 -0.69575765 1.99970042 -2.5625 4.0625 C-2.8925 3.7325 -3.2225 3.4025 -3.5625 3.0625 C-4.2225 3.7225 -4.8825 4.3825 -5.5625 5.0625 C-4.43693182 0.07784091 -4.43693182 0.07784091 0 0 Z " fill="#A5A5A5" transform="translate(357.5625,303.9375)"/>
<path d="M0 0 C0.99 0 1.98 0 3 0 C2.67 2.31 2.34 4.62 2 7 C1.34 7 0.68 7 0 7 C0 4.69 0 2.38 0 0 Z " fill="#D1D1D1" transform="translate(333,299)"/>
<path d="M0 0 C1.74627478 2.61941217 2.38722388 4.03824877 3 7 C1.68 7 0.36 7 -1 7 C-1.33 5.02 -1.66 3.04 -2 1 C-1.34 0.67 -0.68 0.34 0 0 Z " fill="#B3B3B3" transform="translate(129,278)"/>
<path d="M0 0 C0.99 0 1.98 0 3 0 C3.33 1.65 3.66 3.3 4 5 C2.02 5 0.04 5 -2 5 C-1.34 4.34 -0.68 3.68 0 3 C0 2.01 0 1.02 0 0 Z " fill="#ABABAB" transform="translate(391,196)"/>
<path d="M0 0 C2.86724686 0.57344937 3.8614515 0.8614515 6 3 C5.01 3.66 4.02 4.32 3 5 C1.5 3.625 1.5 3.625 0 2 C0 1.34 0 0.68 0 0 Z " fill="#C8C8C8" transform="translate(323,166)"/>
</svg>
