<svg width="1165" height="728" viewBox="0 0 1165 728" fill="none" xmlns="http://www.w3.org/2000/svg">
<g filter="url(#filter0_i_11_21)">
<path d="M703.5 0H0L44 43V79.5H661.5V43L703.5 0Z" fill="#19BBC9"/>
<path d="M115 132.5H233.5L228.5 495.5C232.5 509.5 235.167 519.333 236 522.5L239.5 533.5L243.5 543.5L248.5 554L253.5 563.5L260 576L271.5 585.5L280 593L289.5 598.5L303 606.5L317.5 610.5H327V505.5L271.5 537L327 423L271.5 452.5L327 345L280 369L345.5 241.5L409.5 369L367.5 339.5L423.5 452.5L367.5 420L421 535.5L367.5 501.5L366.5 613L379 610.5L393 606.5L409.5 598.5L418 593L426.5 585.5L435.5 572L446 557.5L450.5 548.5L457.5 528L464.5 509.5V491L468 132.5H586.5V292L792 92L888.5 185.5L962.5 116L1165 322L1001 231L767.5 465.5L1043 722.5H878L613 465.5L815 259L746.5 194.5L586.5 345V382.5V447V495.5L578.5 554L564 598.5L543 634L523 656L500 680L468 701.5L439 717L413.5 722.5L379.5 728H355H335H311L286.5 722.5L268.5 717L233.5 701.5L211.5 688L188 669L167 647L149 624L136 598.5L127 576L119.5 548.5L115 522V132.5Z" fill="#19BBC9"/>
</g>
<defs>
<filter id="filter0_i_11_21" x="0" y="0" width="1165" height="732" filterUnits="userSpaceOnUse" color-interpolation-filters="sRGB">
<feFlood flood-opacity="0" result="BackgroundImageFix"/>
<feBlend mode="normal" in="SourceGraphic" in2="BackgroundImageFix" result="shape"/>
<feColorMatrix in="SourceAlpha" type="matrix" values="0 0 0 0 0 0 0 0 0 0 0 0 0 0 0 0 0 0 127 0" result="hardAlpha"/>
<feOffset dy="4"/>
<feGaussianBlur stdDeviation="2"/>
<feComposite in2="hardAlpha" operator="arithmetic" k2="-1" k3="1"/>
<feColorMatrix type="matrix" values="0 0 0 0 0 0 0 0 0 0 0 0 0 0 0 0 0 0 0.25 0"/>
<feBlend mode="normal" in2="shape" result="effect1_innerShadow_11_21"/>
</filter>
</defs>
</svg>
