<svg width="1173" height="736" viewBox="0 0 1173 736" fill="none" xmlns="http://www.w3.org/2000/svg">
<g filter="url(#filter0_d_11_7)">
<path d="M707.5 0H4L48 43V79.5H665.5V43L707.5 0Z" fill="#19BBC9" fill-opacity="0.34" shape-rendering="crispEdges"/>
<path d="M707.5 0H4L48 43V79.5H665.5V43L707.5 0Z" fill="#007A7B" fill-opacity="0.11" shape-rendering="crispEdges"/>
<path d="M707.5 0H4L48 43V79.5H665.5V43L707.5 0Z" fill="#007A7B" fill-opacity="0.3" shape-rendering="crispEdges"/>
<path d="M119 132.5H237.5L232.5 495.5C236.5 509.5 239.167 519.333 240 522.5L243.5 533.5L247.5 543.5L252.5 554L257.5 563.5L264 576L275.5 585.5L284 593L293.5 598.5L307 606.5L321.5 610.5H331V505.5L275.5 537L331 423L275.5 452.5L331 345L284 369L349.5 241.5L413.5 369L371.5 339.5L427.5 452.5L371.5 420L425 535.5L371.5 501.5L370.5 613L383 610.5L397 606.5L413.5 598.5L422 593L430.5 585.5L439.5 572L450 557.5L454.5 548.5L461.5 528L468.5 509.5V491L472 132.5H590.5V292L796 92L892.5 185.5L966.5 116L1169 322L1005 231L771.5 465.5L1047 722.5H882L617 465.5L819 259L750.5 194.5L590.5 345V382.5V447V495.5L582.5 554L568 598.5L547 634L527 656L504 680L472 701.5L443 717L417.5 722.5L383.5 728H359H339H315L290.5 722.5L272.5 717L237.5 701.5L215.5 688L192 669L171 647L153 624L140 598.5L131 576L123.5 548.5L119 522V132.5Z" fill="#19BBC9" fill-opacity="0.34" shape-rendering="crispEdges"/>
<path d="M119 132.5H237.5L232.5 495.5C236.5 509.5 239.167 519.333 240 522.5L243.5 533.5L247.5 543.5L252.5 554L257.5 563.5L264 576L275.5 585.5L284 593L293.5 598.5L307 606.5L321.5 610.5H331V505.5L275.5 537L331 423L275.5 452.5L331 345L284 369L349.5 241.5L413.5 369L371.5 339.5L427.5 452.5L371.5 420L425 535.5L371.5 501.5L370.5 613L383 610.5L397 606.5L413.5 598.5L422 593L430.5 585.5L439.5 572L450 557.5L454.5 548.5L461.5 528L468.5 509.5V491L472 132.5H590.5V292L796 92L892.5 185.5L966.5 116L1169 322L1005 231L771.5 465.5L1047 722.5H882L617 465.5L819 259L750.5 194.5L590.5 345V382.5V447V495.5L582.5 554L568 598.5L547 634L527 656L504 680L472 701.5L443 717L417.5 722.5L383.5 728H359H339H315L290.5 722.5L272.5 717L237.5 701.5L215.5 688L192 669L171 647L153 624L140 598.5L131 576L123.5 548.5L119 522V132.5Z" fill="#007A7B" fill-opacity="0.11" shape-rendering="crispEdges"/>
<path d="M119 132.5H237.5L232.5 495.5C236.5 509.5 239.167 519.333 240 522.5L243.5 533.5L247.5 543.5L252.5 554L257.5 563.5L264 576L275.5 585.5L284 593L293.5 598.5L307 606.5L321.5 610.5H331V505.5L275.5 537L331 423L275.5 452.5L331 345L284 369L349.5 241.5L413.5 369L371.5 339.5L427.5 452.5L371.5 420L425 535.5L371.5 501.5L370.5 613L383 610.5L397 606.5L413.5 598.5L422 593L430.5 585.5L439.5 572L450 557.5L454.5 548.5L461.5 528L468.5 509.5V491L472 132.5H590.5V292L796 92L892.5 185.5L966.5 116L1169 322L1005 231L771.5 465.5L1047 722.5H882L617 465.5L819 259L750.5 194.5L590.5 345V382.5V447V495.5L582.5 554L568 598.5L547 634L527 656L504 680L472 701.5L443 717L417.5 722.5L383.5 728H359H339H315L290.5 722.5L272.5 717L237.5 701.5L215.5 688L192 669L171 647L153 624L140 598.5L131 576L123.5 548.5L119 522V132.5Z" fill="#007A7B" fill-opacity="0.3" shape-rendering="crispEdges"/>
</g>
<defs>
<filter id="filter0_d_11_7" x="0" y="0" width="1173" height="736" filterUnits="userSpaceOnUse" color-interpolation-filters="sRGB">
<feFlood flood-opacity="0" result="BackgroundImageFix"/>
<feColorMatrix in="SourceAlpha" type="matrix" values="0 0 0 0 0 0 0 0 0 0 0 0 0 0 0 0 0 0 127 0" result="hardAlpha"/>
<feOffset dy="4"/>
<feGaussianBlur stdDeviation="2"/>
<feComposite in2="hardAlpha" operator="out"/>
<feColorMatrix type="matrix" values="0 0 0 0 0 0 0 0 0 0 0 0 0 0 0 0 0 0 0.25 0"/>
<feBlend mode="normal" in2="BackgroundImageFix" result="effect1_dropShadow_11_7"/>
<feBlend mode="normal" in="SourceGraphic" in2="effect1_dropShadow_11_7" result="shape"/>
</filter>
</defs>
</svg>
